<?xml version="1.0" encoding="UTF-8" standalone="no"?>
<!-- Created with Inkscape (http://www.inkscape.org/) -->

<svg
   xmlns:dc="http://purl.org/dc/elements/1.1/"
   xmlns:cc="http://creativecommons.org/ns#"
   xmlns:rdf="http://www.w3.org/1999/02/22-rdf-syntax-ns#"
   xmlns:svg="http://www.w3.org/2000/svg"
   xmlns="http://www.w3.org/2000/svg"
   xmlns:xlink="http://www.w3.org/1999/xlink"
   xmlns:sodipodi="http://sodipodi.sourceforge.net/DTD/sodipodi-0.dtd"
   xmlns:inkscape="http://www.inkscape.org/namespaces/inkscape"
   version="1.0"
   width="289.26947"
   height="228.99892"
   id="svg2"
   inkscape:version="0.48.2 r9819"
   sodipodi:docname="Roman_SPQR_banner.svg">
  <metadata
     id="metadata58">
    <rdf:RDF>
      <cc:Work
         rdf:about="">
        <dc:format>image/svg+xml</dc:format>
        <dc:type
           rdf:resource="http://purl.org/dc/dcmitype/StillImage" />
      </cc:Work>
    </rdf:RDF>
  </metadata>
  <sodipodi:namedview
     pagecolor="#ffffff"
     bordercolor="#666666"
     borderopacity="1"
     objecttolerance="10"
     gridtolerance="10"
     guidetolerance="10"
     inkscape:pageopacity="0"
     inkscape:pageshadow="2"
     inkscape:window-width="1152"
     inkscape:window-height="808"
     id="namedview56"
     showgrid="false"
     inkscape:zoom="1.0157512"
     inkscape:cx="176.61602"
     inkscape:cy="124.37191"
     inkscape:window-x="-4"
     inkscape:window-y="-4"
     inkscape:window-maximized="1"
     inkscape:current-layer="g3056"
     fit-margin-top="0"
     fit-margin-left="0"
     fit-margin-right="0"
     fit-margin-bottom="0" />
  <defs
     id="Defs">
    <linearGradient
       id="linearGradient7866">
      <stop
         id="stop7868"
         style="stop-color:#af8000;stop-opacity:1"
         offset="0" />
      <stop
         id="stop7870"
         style="stop-color:#af8000;stop-opacity:0"
         offset="1" />
    </linearGradient>
    <radialGradient
       cx="437.30109"
       cy="620.93683"
       r="199.12071"
       fx="437.30109"
       fy="620.93683"
       id="radialGradient2516"
       xlink:href="#linearGradient7866"
       gradientUnits="userSpaceOnUse"
       gradientTransform="matrix(1.318552,-0.3498081,0.3580402,1.349483,-651.83818,-542.85994)" />
    <filter
       id="filter3277"
       x="-0.072905906"
       width="1.1458118"
       y="-0.33894199"
       height="1.677884"
       color-interpolation-filters="sRGB">
      <feGaussianBlur
         inkscape:collect="always"
         stdDeviation="5.6648677"
         id="feGaussianBlur3279" />
    </filter>
    <radialGradient
       cx="437.30109"
       cy="620.93683"
       r="199.12071"
       fx="437.30109"
       fy="620.93683"
       id="radialGradient3911"
       xlink:href="#linearGradient7866"
       gradientUnits="userSpaceOnUse"
       gradientTransform="matrix(1.318552,-0.3498081,0.3580402,1.349483,-649.47291,-553.00313)" />
    <radialGradient
       cx="437.30109"
       cy="620.93683"
       r="199.12071"
       fx="437.30109"
       fy="620.93683"
       id="radialGradient3908"
       xlink:href="#linearGradient7866"
       gradientUnits="userSpaceOnUse"
       gradientTransform="matrix(1.318552,-0.3498081,0.3580402,1.349483,-649.47291,-553.00313)" />
    <radialGradient
       cx="437.30109"
       cy="620.93683"
       r="199.12071"
       fx="437.30109"
       fy="620.93683"
       id="radialGradient3904"
       xlink:href="#linearGradient7866"
       gradientUnits="userSpaceOnUse"
       gradientTransform="matrix(1.318552,-0.3498081,0.3580402,1.349483,-649.47291,-553.00313)" />
    <radialGradient
       cx="437.30109"
       cy="620.93683"
       r="199.12071"
       fx="437.30109"
       fy="620.93683"
       id="radialGradient3890"
       xlink:href="#linearGradient7866"
       gradientUnits="userSpaceOnUse"
       gradientTransform="matrix(1.318552,-0.3498081,0.3580402,1.349483,-860.53985,-750.19976)" />
    <filter
       id="filter3242"
       color-interpolation-filters="sRGB">
      <feGaussianBlur
         inkscape:collect="always"
         stdDeviation="6.4291911"
         id="feGaussianBlur3244" />
    </filter>
    <filter
       id="filter3262"
       x="-0.23756483"
       width="1.4751297"
       y="-0.25284177"
       height="1.5056835"
       color-interpolation-filters="sRGB">
      <feGaussianBlur
         inkscape:collect="always"
         stdDeviation="1.0679108"
         id="feGaussianBlur3264" />
    </filter>
    <filter
       id="filter3266"
       x="-0.19714534"
       width="1.3942907"
       y="-0.19571197"
       height="1.3914239"
       color-interpolation-filters="sRGB">
      <feGaussianBlur
         inkscape:collect="always"
         stdDeviation="1.0679108"
         id="feGaussianBlur3268" />
    </filter>
    <filter
       id="filter3270"
       x="-0.20584294"
       width="1.4116859"
       y="-0.25284177"
       height="1.5056835"
       color-interpolation-filters="sRGB">
      <feGaussianBlur
         inkscape:collect="always"
         stdDeviation="1.0679108"
         id="feGaussianBlur3272" />
    </filter>
    <filter
       id="filter3274"
       x="-0.25375852"
       width="1.507517"
       y="-0.24677926"
       height="1.4935585"
       color-interpolation-filters="sRGB">
      <feGaussianBlur
         inkscape:collect="always"
         stdDeviation="1.0679108"
         id="feGaussianBlur3276" />
    </filter>
    <filter
       height="1.677884"
       y="-0.33894199"
       width="1.1458118"
       x="-0.072905906"
       id="filter4348"
       color-interpolation-filters="sRGB">
      <feGaussianBlur
         id="feGaussianBlur4350"
         stdDeviation="5.6648677"
         inkscape:collect="always" />
    </filter>
    <radialGradient
       cx="437.30109"
       cy="620.93683"
       r="199.12071"
       fx="437.30109"
       fy="620.93683"
       id="radialGradient4346"
       xlink:href="#linearGradient7866"
       gradientUnits="userSpaceOnUse"
       gradientTransform="matrix(1.318552,-0.3498081,0.3580402,1.349483,-649.47291,-553.00313)" />
    <linearGradient
       id="linearGradient4340">
      <stop
         id="stop4342"
         style="stop-color:#af8000;stop-opacity:1"
         offset="0" />
      <stop
         id="stop4344"
         style="stop-color:#af8000;stop-opacity:0"
         offset="1" />
    </linearGradient>
    <radialGradient
       cx="437.30109"
       cy="620.93683"
       r="199.12071"
       fx="437.30109"
       fy="620.93683"
       id="radialGradient4413"
       xlink:href="#linearGradient7866"
       gradientUnits="userSpaceOnUse"
       gradientTransform="matrix(1.318552,-0.3498081,0.3580402,1.349483,-860.53985,-750.19976)" />
    <radialGradient
       cx="437.30109"
       cy="620.93683"
       r="199.12071"
       fx="437.30109"
       fy="620.93683"
       id="radialGradient4415"
       xlink:href="#linearGradient7866"
       gradientUnits="userSpaceOnUse"
       gradientTransform="matrix(1.318552,-0.3498081,0.3580402,1.349483,-860.53985,-750.19976)" />
    <inkscape:perspective
       id="perspective11"
       inkscape:persp3d-origin="372.04724 : 350.78739 : 1"
       inkscape:vp_z="744.09448 : 526.18109 : 1"
       inkscape:vp_y="0 : 1000 : 0"
       inkscape:vp_x="0 : 526.18109 : 1"
       sodipodi:type="inkscape:persp3d" />
  </defs>
  <path
     d="m 192.57244,220.3348 c -0.69865,-1.47728 -2.45857,-5.34269 -3.91094,-8.58979 -1.45238,-3.2471 -2.86817,-6.36188 -3.1462,-6.92173 -0.27804,-0.55984 -0.94581,-1.89769 -1.48394,-2.973 -0.87963,-1.75772 -3.89397,-4.35588 -5.0536,-4.35588 -0.1867,0 -0.62871,-0.24067 -0.98225,-0.53482 -0.35354,-0.29414 -2.01697,-1.13704 -3.69651,-1.87308 -1.67953,-0.73606 -3.98807,-1.77794 -5.13008,-2.31532 -2.37409,-1.11711 -5.08078,-1.26677 -7.13679,-0.39459 -0.75514,0.32034 -2.65555,1.7424 -4.22312,3.16013 -1.56756,1.41773 -3.30817,2.78759 -3.86802,3.04414 -4.71616,2.16113 -7.39123,2.30118 -11.09403,0.58085 -4.41963,-2.05336 -7.3672,-3.35765 -9.44163,-4.17785 -1.10543,-0.43707 -2.93766,-1.22454 -4.07161,-1.74995 -4.04977,-1.87642 -6.97823,-3.16771 -8.96855,-3.95463 -1.11149,-0.43947 -2.48566,-1.04514 -3.0537,-1.34595 -1.34084,-0.71004 -4.03462,-1.8936 -8.46148,-3.71769 -1.96056,-0.80786 -4.02271,-1.71485 -4.58255,-2.01553 -0.55985,-0.30069 -2.57529,-1.2098 -4.478766,-2.02024 -1.90347,-0.81044 -4.285354,-1.84652 -5.29308,-2.3024 -6.423736,-2.90607 -7.892669,-3.46118 -9.992041,-3.776 -1.104654,-0.16566 -2.468926,-0.53115 -3.031726,-0.81222 -2.392303,-1.19476 -6.911962,-1.50102 -16.327588,-1.1064 -5.058307,0.212 -9.547245,0.56713 -9.975424,0.78918 -1.673214,0.86769 -5.111582,1.40005 -11.161093,1.72805 -3.471042,0.18821 -7.685149,0.52778 -9.364687,0.75461 -11.493731,1.55228 -13.483171,1.77053 -13.745742,1.50796 -0.16198,-0.16198 0.0068,-0.46313 0.375068,-0.66922 1.065901,-0.59651 3.671163,-4.46416 4.077137,-6.05271 0.799824,-3.12976 1.587394,-4.40902 2.872606,-4.66606 1.839523,-0.3679 2.34523,-0.30185 2.122986,0.27731 -0.272973,0.71135 2.031958,3.00227 3.256067,3.23628 0.544081,0.10401 1.229201,0.0408 1.522501,-0.14048 0.293299,-0.18126 1.471615,-0.24275 2.618482,-0.13663 1.544876,0.14294 2.217737,0.0333 2.596618,-0.42326 0.680464,-0.81991 1.088936,-0.77713 1.328546,0.13915 0.265396,1.01486 3.86155,1.48877 4.815437,0.63459 0.353544,-0.31658 0.903206,-0.5756 1.221481,-0.57559 0.318275,2e-5 1.13526,-0.66291 1.815514,-1.47315 1.071203,-1.27587 1.495319,-1.48405 3.167008,-1.55449 1.463283,-0.0617 2.080351,-0.29576 2.551069,-0.96779 0.900239,-1.28528 4.755138,-2.92631 6.8741,-2.92631 0.986507,0 2.294237,-0.19032 2.906064,-0.42294 0.769776,-0.29267 1.193041,-0.29248 1.374169,5.9e-4 0.164233,0.26573 0.569111,0.13717 1.086745,-0.34508 1.493086,-1.39103 10.201869,-1.8728 11.564384,-0.63974 0.563781,0.51022 0.911062,0.55915 1.548232,0.21814 0.451787,-0.24179 1.308676,-0.43961 1.904213,-0.43961 0.740362,0 1.150127,-0.25752 1.295735,-0.81432 0.221496,-0.84699 1.511868,-1.1164 1.950196,-0.40716 0.1384,0.22394 0.801301,0.40716 1.473114,0.40716 0.710641,0 1.116247,-0.17028 0.969843,-0.40716 -0.357969,-0.57922 0.687278,-0.50362 2.291452,0.16572 1.735242,0.72403 5.090833,0.3984 6.402014,-0.62125 1.33205,-1.03589 3.494356,-1.36741 4.959786,-0.76041 0.96946,0.40157 1.12569,0.62105 0.75768,1.06449 -0.36047,0.43434 -0.31665,0.55861 0.19698,0.55861 0.36333,0 0.6606,0.28197 0.6606,0.6266 0,0.50202 0.17717,0.46154 0.89109,-0.20358 0.4901,-0.4566 1.13138,-0.83018 1.42507,-0.83018 0.29368,0 0.53396,-0.19404 0.53396,-0.43119 0,-0.23715 0.18322,-0.31796 0.40716,-0.17955 0.85231,0.52675 0.38516,2.17435 -0.94855,3.34535 -0.74565,0.65469 -1.47985,1.39118 -1.63155,1.63666 -0.50131,0.81112 0.45476,2.41457 1.76272,2.95635 0.99968,0.41408 1.23833,0.7189 1.06919,1.36567 -0.11975,0.45793 -0.0455,1.04016 0.16505,1.29383 0.25179,0.30338 0.10661,0.7577 -0.42419,1.32743 -0.44385,0.47642 -0.80699,0.97348 -0.80699,1.10458 0,0.53365 -1.90557,2.22031 -2.95192,2.6128 -1.3005,0.48783 -1.52706,2.01042 -0.45819,3.07929 0.74314,0.74314 2.44736,0.66573 2.29042,-0.10404 -0.11314,-0.55493 0.10724,-0.59598 1.37416,-0.25597 0.60193,0.16154 0.86522,0.55564 0.86522,1.2951 0,1.08822 1.96607,3.09441 2.63026,2.68392 0.18508,-0.11439 1.01509,0.21142 1.84446,0.724 1.26513,0.78189 2.09525,0.93641 5.15488,0.95956 2.47606,0.0187 3.69981,0.18623 3.81163,0.52171 0.0906,0.27176 0.47511,0.49412 0.85451,0.49412 0.37938,0 1.0512,0.24883 1.49291,0.55297 0.44173,0.30413 1.49985,0.68068 2.35139,0.83678 0.85153,0.1561 1.60861,0.50273 1.68241,0.7703 1.24224,4.50413 2.24058,5.4669 6.23543,6.01318 3.19737,0.43724 6.20957,1.24252 6.20957,1.66006 0,0.15996 0.36232,0.40583 0.80516,0.54638 0.44284,0.14056 1.55951,0.88579 2.48149,1.65608 1.9481,1.6276 2.31218,1.67654 4.43094,0.59564 2.08724,-1.06484 2.73656,-2.86549 2.05613,-5.70189 -0.73356,-3.05782 -0.12245,-4.32949 3.17295,-6.60259 2.4399,-1.68299 6.77189,-2.04946 9.57405,-0.80994 1.0499,0.46442 1.9089,1.10114 1.9089,1.41493 0,1.35236 1.3392,1.89481 6.68252,2.70675 1.87673,0.28518 3.13309,1.175 3.58866,2.54168 0.11669,0.3501 0.4862,0.35421 1.45587,0.0162 1.5009,-0.52322 6.40497,0.27987 8.32898,1.36394 0.61769,0.34803 1.44219,0.58399 1.83222,0.52435 0.39003,-0.0596 1.12859,0.12262 1.64125,0.40502 0.51265,0.28241 1.24554,0.48208 1.62864,0.4437 1.19913,-0.12011 1.56261,3.9e-4 2.52876,0.83832 0.5164,0.44788 1.07677,0.81432 1.24526,0.81432 0.16848,0 1.0739,-0.64127 2.01202,-1.42506 0.93813,-0.78378 1.92654,-1.42506 2.19647,-1.42506 0.26994,0 0.70879,-0.21801 0.97526,-0.48447 0.87006,-0.87006 3.84258,-1.34118 4.89806,-0.7763 0.55058,0.29466 1.17608,0.31667 1.83881,0.0647 0.79513,-0.30231 1.15317,-0.21749 1.71841,0.4071 0.39271,0.43393 0.90021,0.78897 1.12779,0.78897 0.22758,0 0.73361,0.28944 1.12451,0.64319 0.51248,0.46379 0.91891,0.53418 1.45712,0.25233 0.41052,-0.21497 1.32806,-0.30241 2.03898,-0.19432 3.27039,0.49727 5.88823,-1.66241 6.64327,-5.48061 0.25514,-1.29024 0.92975,-3.90328 1.49912,-5.80676 1.08097,-3.6138 1.31802,-4.2973 2.18868,-6.31098 0.66927,-1.54788 0.50702,-5.99277 -0.23421,-6.41651 -0.40626,-0.23223 -0.44507,-0.63722 -0.15607,-1.62863 0.26676,-0.91521 0.23641,-1.60072 -0.0991,-2.23713 -0.41321,-0.78385 -0.34737,-1.06271 0.45171,-1.9133 0.56117,-0.59733 0.8347,-1.25819 0.68368,-1.65175 -0.21335,-0.55597 -0.39913,-0.49701 -1.2179,0.38644 -1.13221,1.22168 -2.12887,1.30404 -4.14517,0.34254 l -1.46783,-0.69996 -1.19253,1.36587 c -0.65589,0.75123 -1.19254,1.52426 -1.19254,1.71786 0,0.19359 -0.35563,0.35198 -0.79029,0.35198 -0.43466,0 -0.87739,0.14093 -0.98384,0.31318 -0.10645,0.17224 -1.35847,0.36549 -2.78225,0.42943 -2.3615,0.10605 -2.67718,0.0203 -3.59672,-0.97745 -1.24251,-1.34815 -5.49798,-3.42884 -7.01362,-3.42928 -1.03212,-3e-4 -1.11969,0.12516 -1.11969,1.60429 0,1.5712 -0.64991,2.55598 -1.16521,1.76559 -0.15878,-0.24353 -0.73497,-0.13037 -1.48133,0.29093 -1.16068,0.65519 -1.29749,0.65011 -2.74833,-0.10186 -0.83977,-0.43525 -1.53158,-1.0019 -1.53736,-1.25921 -0.027,-1.20479 -4.46826,-2.23355 -4.46826,-1.03502 0,0.6159 -0.89863,0.40245 -1.46901,-0.34893 -0.33033,-0.43515 -0.54593,-0.5144 -0.55384,-0.20358 -0.007,0.27992 -0.39466,0.50895 -0.86119,0.50895 -1.34943,0 -0.66861,-1.00264 0.77781,-1.14549 0.71055,-0.0702 1.29191,-0.31092 1.29191,-0.53499 0,-0.73547 -2.57196,-0.1724 -3.62845,0.79435 -1.01792,0.93145 -1.85658,0.50806 -0.89612,-0.45241 0.24913,-0.24913 0.45297,-0.78277 0.45297,-1.18585 0,-0.40309 0.29036,-0.73289 0.64526,-0.73289 0.48065,0 0.36023,-0.30198 -0.47206,-1.1838 -0.61453,-0.65109 -1.31715,-1.11107 -1.56137,-1.02217 -0.69426,0.25268 -1.6006,-0.49757 -1.26232,-1.04493 0.16973,-0.27461 0.8221,-0.41577 1.47722,-0.31962 0.78992,0.11594 1.17327,-0.004 1.17327,-0.36802 0,-0.29713 -0.37219,-0.54023 -0.8271,-0.54023 -0.45491,0 -0.93846,-0.29019 -1.07456,-0.64487 -0.19954,-0.51999 -0.31534,-0.53971 -0.59796,-0.10179 -0.2921,0.45259 -0.40897,0.45248 -0.70139,-6.4e-4 -0.193,-0.29905 -0.51094,-0.57389 -0.70655,-0.61074 -0.19562,-0.0369 -0.39188,-0.63317 -0.43615,-1.32514 -0.0707,-1.10552 0.0837,-1.30308 1.27262,-1.62865 1.24959,-0.34217 1.32063,-0.44838 0.9286,-1.38841 -0.34827,-0.83509 -0.45529,-0.88993 -0.59593,-0.30537 -0.21753,0.90421 -2.03743,0.9479 -3.27838,0.0787 -1.15985,-0.81239 -1.15518,-1.40028 0.0112,-1.40822 0.55507,-0.004 0.72897,-0.12528 0.44126,-0.30832 -0.33329,-0.21203 -0.3725,-0.84998 -0.1315,-2.13996 0.18884,-1.01082 0.31091,-2.19937 0.27127,-2.64121 -0.0489,-0.5448 0.38656,-1.03981 1.35298,-1.53809 l 1.42506,-0.73473 -1.59203,0.28095 c -1.19383,0.21068 -1.70448,0.12718 -2.04161,-0.33388 -0.49305,-0.67429 -4.01599,-1.57208 -4.60689,-1.17403 -0.20308,0.1368 -0.49274,0.5829 -0.64367,0.99135 -0.32046,0.86712 -1.67522,0.76028 -1.75679,-0.13854 -0.0302,-0.33225 -0.076,-0.75459 -0.10179,-0.93854 -0.0258,-0.18395 -0.32261,-0.0588 -0.65951,0.27808 -0.36389,0.3639 -1.06631,0.53981 -1.73043,0.43336 -1.03331,-0.16561 -0.96579,-0.0403 0.89239,1.65593 1.25306,1.14387 1.76056,1.83511 1.34731,1.83511 -0.36464,0 -0.76256,-0.16111 -0.88425,-0.35802 -0.1217,-0.19691 -0.63638,-0.46262 -1.14372,-0.59049 -0.86773,-0.21868 -0.87766,-0.19897 -0.1674,0.33221 0.41528,0.31058 0.68019,0.78932 0.58867,1.06387 -0.35392,1.06176 -3.58312,0.8258 -3.58312,-0.26183 0,-0.33718 -0.45805,-0.78721 -1.01789,-1.00006 -0.55985,-0.21285 -1.0179,-0.57477 -1.0179,-0.80425 0,-0.22948 -0.18323,-0.41724 -0.40716,-0.41724 -0.63915,0 -0.47585,2.28626 0.20358,2.85013 0.3359,0.27877 0.61073,0.65356 0.61073,0.83285 0,0.1793 0.56775,0.89373 1.26166,1.58763 0.6939,0.69391 1.16542,1.51241 1.04781,1.81888 -0.30745,0.80122 1.20908,2.26638 2.6426,2.55308 0.67393,0.13479 1.31781,0.53966 1.43084,0.89971 0.47002,1.49724 1.11687,2.48686 1.62552,2.48686 0.29807,0 0.54195,0.19403 0.54195,0.43118 0,0.23716 0.2037,0.30529 0.45267,0.15142 0.52479,-0.32433 1.16068,0.521 1.16973,1.55498 0.006,0.64685 -0.068,0.63832 -0.79885,-0.0925 -0.4428,-0.44279 -1.08253,-0.69862 -1.42163,-0.56849 -0.357,0.13698 -0.72203,-0.0383 -0.86712,-0.4164 -0.43073,-1.12247 -0.92332,-0.71678 -1.05498,0.86887 l -0.12637,1.52184 -0.83985,-0.90603 c -0.46193,-0.49833 -1.42714,-1.0235 -2.14492,-1.16705 -1.15558,-0.23112 -1.27246,-0.17341 -1.02061,0.50388 0.15643,0.42068 0.61777,1.06121 1.02521,1.42338 0.9006,0.80056 0.94194,1.17373 0.13005,1.17373 -0.33591,0 -0.61074,0.21515 -0.61074,0.47813 0,0.26298 -0.45806,0.0478 -1.0179,-0.47813 -1.14448,-1.07518 -1.45165,-0.33984 -0.36132,0.86497 0.36111,0.39903 0.69812,1.25362 0.7489,1.8991 0.0508,0.64547 0.24581,1.42194 0.43341,1.72548 0.19951,0.32281 0.16672,0.61001 -0.079,0.69192 -0.23104,0.077 -0.33372,0.59168 -0.2282,1.14372 0.10553,0.55203 0.007,1.0037 -0.21919,1.0037 -0.48774,0 -0.90535,-0.96785 -0.90535,-2.09819 0,-0.96183 -1.19172,-2.36361 -1.26973,-1.49355 -0.0265,0.29592 -0.0185,0.76706 0.0178,1.04698 0.12765,0.98304 -0.8306,0.49655 -1.21954,-0.61913 -0.39376,-1.12956 -2.00734,-2.51658 -2.00734,-1.72549 0,0.22584 0.21986,0.41061 0.48858,0.41061 0.37699,0 0.37822,0.11037 0.005,0.4832 -0.37283,0.37282 -0.724,0.25698 -1.53739,-0.50716 -0.82844,-0.77828 -1.00345,-1.24407 -0.81724,-2.17511 0.19293,-0.9646 0.0105,-1.38692 -0.98179,-2.27283 -1.11416,-0.99473 -1.17552,-1.18118 -0.715,-2.17295 0.27705,-0.59666 0.65197,-1.08627 0.83314,-1.08802 0.18116,-0.002 0.22679,-0.1692 0.10138,-0.37211 -0.12541,-0.20292 -0.59428,-0.27316 -1.04194,-0.1561 -0.5659,0.14799 -0.81391,0.0123 -0.81391,-0.44538 0,-0.36202 -0.18322,-0.65823 -0.40716,-0.65823 -0.22394,0 -0.40716,-0.30985 -0.40716,-0.68856 0,-0.60042 -0.0765,-0.58739 -0.59779,0.10179 -0.65834,0.8704 -0.83584,1.98743 -0.25919,1.63104 0.37693,-0.23296 1.01881,0.96542 0.6921,1.29214 -0.10123,0.10122 -0.74682,0.0604 -1.43464,-0.0906 -1.33695,-0.29364 -1.6394,-0.90066 -0.63986,-1.28421 0.36643,-0.14062 0.61074,-0.75442 0.61074,-1.53444 0,-0.71503 0.17686,-1.47693 0.39303,-1.6931 0.42863,-0.42862 -2.07849,-2.94031 -2.72114,-2.72609 -0.20095,0.067 -0.80806,-0.34944 -1.34913,-0.92538 -0.809,-0.86114 -0.88061,-1.11092 -0.40313,-1.40602 0.31935,-0.19737 0.72469,-0.26981 0.90077,-0.16099 0.17609,0.10882 0.21371,-0.0795 0.0836,-0.41853 -0.13009,-0.33901 -0.59093,-0.72887 -1.02408,-0.86635 -1.1349,-0.3602 -2.1196,-2.0488 -1.84131,-3.15755 0.50325,-2.00511 0.70603,-6.39533 0.29539,-6.39533 -0.22785,0 -1.04877,-0.59547 -1.82425,-1.32327 -2.10563,-1.97614 -3.76272,-3.1555 -4.43375,-3.1555 -0.32905,0 -0.82637,-0.27483 -1.10515,-0.61073 -0.34428,-0.41483 -1.26682,-0.61075 -2.87595,-0.61075 -1.30299,0 -2.48231,-0.18322 -2.62071,-0.40716 -0.14272,-0.23092 0.19935,-0.40715 0.79029,-0.40715 0.57306,0 1.04193,-0.18323 1.04193,-0.40717 0,-0.22393 -0.64128,-0.40716 -1.42506,-0.40716 -1.29662,0 -1.42506,-0.10501 -1.42506,-1.16502 0,-1.02158 -0.12471,-1.14117 -1.01284,-0.9714 -0.6853,0.13101 -1.0944,-0.0189 -1.26504,-0.46362 -0.13872,-0.36148 -0.48846,-0.65724 -0.77721,-0.65724 -0.49419,0 -1.55335,-1.13316 -3.82793,-4.09541 -0.74959,-0.97621 -0.8567,-1.35093 -0.45678,-1.59808 0.6447,-0.39845 0.19116,-1.22823 -0.67132,-1.22823 -0.45955,0 -0.57975,0.28474 -0.43651,1.03404 0.28989,1.51644 -0.61464,1.02064 -1.19945,-0.65747 -0.26728,-0.76696 -0.50214,-1.21125 -0.5219,-0.98731 -0.0198,0.22394 -0.30474,0.76255 -0.63329,1.19692 -0.58925,0.77904 -0.60805,0.7783 -1.38412,-0.0547 -1.04686,-1.12366 -1.30875,-3.42505 -0.46586,-4.09362 0.53899,-0.42752 0.4142,-0.48682 -0.78404,-0.37258 -0.78379,0.0747 -1.79151,0.34925 -2.23939,0.61006 -0.44787,0.26081 -1.33743,0.66028 -1.97678,0.88772 -1.12623,0.40062 -1.1421,0.44461 -0.50895,1.41091 0.75707,1.15543 0.84432,2.11605 0.21136,2.32704 -1.01173,0.33724 0.25877,2.91927 2.09157,4.25073 0.9963,0.72376 2.02739,1.32809 2.29132,1.34296 0.90086,0.0507 1.68849,1.23463 2.55627,3.84231 0.78974,2.37314 1.08752,2.76062 3.33101,4.33433 2.33997,1.6414 2.5743,1.71681 4.66464,1.50107 2.12111,-0.21892 2.20091,-0.19131 2.20091,0.76133 0,0.60721 -0.23556,0.98848 -0.61073,0.98848 -1.38648,0 -0.35402,0.73322 4.17751,2.96672 6.18898,3.05042 7.19483,3.86662 7.1402,5.79393 -0.023,0.8113 -0.1134,1.54666 -0.20088,1.63415 -0.43061,0.43061 -1.92524,-0.40083 -2.03464,-1.13183 -0.0686,-0.45816 -0.3995,-0.96312 -0.73541,-1.12213 -0.33591,-0.15901 -1.18868,-0.58997 -1.89504,-0.9577 -1.84862,-0.96234 -2.12786,-0.86357 -3.00185,1.06185 -1.05777,2.33032 -1.01904,2.5532 0.57505,3.30965 1.05248,0.49943 1.42611,0.9677 1.58016,1.9804 0.25231,1.65868 0.0891,1.93705 -1.13604,1.93705 -1.03487,0 -1.82252,1.02541 -1.82252,2.37263 0,0.43864 -0.27758,0.90405 -0.61685,1.03424 -0.33927,0.13019 -0.79279,0.69946 -1.00783,1.26504 -0.41557,1.09303 -2.13487,1.45549 -2.68463,0.56596 -0.17678,-0.28603 -0.63513,0.11651 -1.20185,1.05552 -0.82435,1.36589 -0.85955,1.62625 -0.35151,2.59996 0.66609,1.27666 0.72977,2.09998 0.16243,2.09998 -0.22394,0 -0.40717,0.34715 -0.40717,0.77144 0,0.67538 -0.18235,0.73031 -1.46441,0.44116 -0.80543,-0.18165 -1.85895,-0.69224 -2.34117,-1.13464 -0.48222,-0.4424 -1.47013,-0.92985 -2.19536,-1.08323 -0.72524,-0.15337 -1.42397,-0.44934 -1.55274,-0.6577 -0.28898,-0.46757 -3.41353,-2.00148 -4.07701,-2.00148 -0.94842,0 -1.43863,-1.06274 -1.01011,-2.18985 0.33017,-0.8684 0.66894,-1.06742 1.81695,-1.06742 0.77611,0 1.52308,-0.18119 1.65995,-0.40264 0.15228,-0.2464 0.64174,-0.1452 1.26137,0.2608 0.82821,0.54266 1.61864,0.61288 4.34214,0.38575 1.8313,-0.15272 3.44922,-0.4712 3.5954,-0.70772 0.14618,-0.23652 0.7456,-0.45795 1.33205,-0.49207 1.0804,-0.0628 1.68906,-0.82438 1.23984,-1.55123 -0.13522,-0.21881 0.13902,-0.49847 0.60941,-0.62149 1.10234,-0.28827 1.11812,-1.67178 0.041,-3.58955 -0.44788,-0.79741 -0.81433,-1.77406 -0.81433,-2.17034 0,-0.93033 -0.76591,-1.6907 -1.44178,-1.43135 -0.97125,0.37271 -2.62982,-1.08633 -2.62982,-2.31344 0,-1.03705 -0.10947,-1.12188 -1.22148,-0.94663 -0.91748,0.1446 -1.22148,0.0344 -1.22148,-0.44268 0,-0.34935 -0.27741,-0.63519 -0.61648,-0.63519 -0.33906,0 -1.14063,-0.58663 -1.78126,-1.30362 -0.93499,-1.04642 -1.46151,-1.29521 -2.66875,-1.26098 -0.94679,0.0268 -1.58516,-0.169 -1.72315,-0.52861 -0.12057,-0.31417 -0.45232,-0.57123 -0.73723,-0.57123 -0.28492,0 -1.73265,-1.19094 -3.21719,-2.64654 -1.48454,-1.4556 -3.05829,-2.64654 -3.49724,-2.64654 -0.51939,0 -0.72116,-0.20042 -0.57783,-0.57396 0.13419,-0.34969 -0.12515,-0.68358 -0.66371,-0.85452 -1.0881,-0.34535 -2.43221,-1.64589 -2.43221,-2.35339 0,-1.40007 -1.61638,-4.98238 -2.30837,-5.1159 -0.40993,-0.0791 -1.02016,-0.38547 -1.35608,-0.68081 -0.335896,-0.29534 -1.116326,-0.66317 -1.734266,-0.8174 -0.61795,-0.15422 -1.224235,-0.44333 -1.347304,-0.64246 -0.414435,-0.67058 -0.986588,-0.37027 -2.800965,1.47017 -1.205934,1.22325 -2.152448,1.83222 -2.847793,1.83222 -0.572835,0 -1.041511,0.18322 -1.041511,0.40716 0,0.22394 -0.261788,0.40716 -0.581751,0.40716 -0.319964,0 -1.281876,0.66948 -2.137588,1.48772 -1.441024,1.37794 -1.746059,1.49062 -4.133331,1.52685 -2.015485,0.0306 -2.691117,-0.11623 -3.098588,-0.67339 -0.286608,-0.3919 -1.050571,-0.72058 -1.697693,-0.73041 -0.647129,-0.01 -1.860163,-0.26186 -2.695636,-0.56007 -1.266383,-0.45202 -1.594188,-0.45168 -1.970782,0.002 -0.248452,0.29937 -0.84744,0.66468 -1.331085,0.81181 -0.483632,0.14713 -1.199978,0.54907 -1.591867,0.8932 -0.769198,0.67544 -0.969183,2.73576 -0.305369,3.14601 0.223933,0.13841 0.407158,1.07385 0.407158,2.07878 0,1.6251 -0.140196,1.90381 -1.267955,2.52072 -0.697373,0.38147 -1.898447,1.10719 -2.669053,1.61271 -0.770607,0.50552 -2.078051,1.08064 -2.905438,1.27808 -2.747385,0.65557 -4.713388,1.67834 -4.20446,2.18726 0.625216,0.62523 0.579873,1.1122 -0.103567,1.1122 -0.764487,0 -3.314971,2.66863 -4.539087,4.74935 -1.184688,2.01371 -1.014328,3.82069 0.47031,4.98851 1.061516,0.83499 0.922409,1.06774 -1.317628,2.20455 -1.249235,0.63398 -2.595052,2.79677 -2.712777,4.35954 -0.04678,0.62105 -0.360814,0.79878 -1.411365,0.79878 -0.82546,0 -1.442378,0.23763 -1.585556,0.61075 -0.128903,0.33591 -0.484891,0.61074 -0.791083,0.61074 -0.306199,0 -0.860021,0.58651 -1.230719,1.30336 -0.970422,1.8766 -1.666802,2.45502 -2.599306,2.15905 -0.446559,-0.14173 -1.035343,-0.11961 -1.308411,0.0491 -0.273061,0.16876 -2.19677,0.25735 -4.27491,0.19686 -3.007281,-0.0875 -3.909813,0.0214 -4.422171,0.53376 -0.354055,0.35406 -1.097031,0.64374 -1.651057,0.64374 -1.000496,0 -2.713498,1.36153 -3.074108,2.44337 -0.152191,0.45656 -0.495551,0.40647 -1.790586,-0.2612 -1.250984,-0.64497 -1.736188,-1.22023 -2.213026,-2.62382 -0.763833,-2.24837 -2.169084,-3.44553 -3.84238,-3.2734 -0.685917,0.0705 -1.430343,0.26757 -1.654283,0.4378 -0.71412,0.54286 -2.239377,0.77347 -2.239377,0.33859 0,-0.25951 -0.853948,-0.34864 -2.239384,-0.23375 -2.199786,0.18242 -2.795404,-0.17842 -1.853886,-1.12313 0.21202,-0.21274 0.501221,-1.8319 0.64267,-3.59813 0.248991,-3.10919 0.230257,-3.2043 -0.589076,-2.99004 -0.638348,0.16694 -0.84625,0.0306 -0.84625,-0.55489 0,-0.5179 -0.285484,-0.77621 -0.857883,-0.77621 -0.656564,0 -0.789524,-0.16721 -0.566585,-0.71253 0.160216,-0.39189 0.471589,-1.33815 0.691941,-2.1028 0.220353,-0.76465 0.725434,-1.68076 1.122402,-2.03581 0.396967,-0.35503 1.032191,-1.74486 1.411616,-3.08848 0.379418,-1.34363 0.95569,-3.04862 1.280603,-3.78886 0.478356,-1.08982 0.508308,-1.86194 0.157446,-4.05825 -0.238317,-1.4918 -0.330964,-3.12013 -0.20588,-3.61849 0.125084,-0.49837 0.05825,-1.32888 -0.148515,-1.84557 -1.271311,-3.17693 -1.32532,-3.58721 -0.511644,-3.88684 0.374109,-0.13777 0.809947,-0.44547 0.968523,-0.68379 0.158569,-0.23831 0.525019,-0.4528 0.814316,-0.47663 0.289304,-0.0238 0.93825,-0.0712 1.442113,-0.10535 0.503863,-0.0341 0.916113,-0.31442 0.916113,-0.6229 0,-1.44243 2.296742,-2.09659 4.167749,-1.18707 0.714358,0.34726 2.495222,0.52385 4.963699,0.49221 2.796507,-0.0358 4.207483,0.12917 5.157701,0.6032 1.45135,0.72403 4.658834,0.87986 5.050962,0.24539 0.327581,-0.53004 2.364645,-0.5262 2.896309,0.005 0.627211,0.62721 6.891833,0.65684 7.639751,0.0361 1.106152,-0.91802 2.545896,-7.54897 2.765214,-12.7356 0.08084,-1.91175 -0.51694,-3.18524 -1.495156,-3.18524 -0.696046,0 -2.75311,-2.75297 -2.438021,-3.2628 0.291155,-0.4711 -0.732983,-1.62312 -1.44295,-1.62312 -0.263892,0 -0.38159,-0.25596 -0.261536,-0.5688 0.270243,-0.70425 -1.525169,-1.1316 -2.145981,-0.51079 -0.299392,0.2994 -0.431284,0.25061 -0.438629,-0.16225 -0.01238,-0.69586 -2.678271,-2.01274 -4.092698,-2.021678 -1.294116,-0.0082 -2.451323,-0.772731 -1.652765,-1.091952 0.378479,-0.1513 0.412808,-0.309767 0.107923,-0.498193 -0.245907,-0.15198 -0.55909,-0.836263 -0.695965,-1.520628 -0.229549,-1.147779 -0.147112,-1.26466 1.062667,-1.506612 0.721343,-0.144267 1.929904,-0.262306 2.685691,-0.262306 0.755794,0 1.37417,-0.162429 1.37417,-0.36095 0,-0.198521 0.548014,-0.441379 1.217805,-0.539683 0.92194,-0.135308 1.387158,0.04677 1.914825,0.749416 0.427826,0.569689 0.861669,0.792179 1.123362,0.576088 0.234491,-0.193634 1.358886,-0.285035 2.498653,-0.203116 l 2.072306,0.148944 0.05145,-1.368458 c 0.02865,-0.762146 -0.213028,-1.58796 -0.545455,-1.863846 -0.328296,-0.272462 -0.596898,-0.931007 -0.596898,-1.463433 0,-0.839701 0.193987,-0.968046 1.463174,-0.968046 1.087433,0 1.514373,0.195744 1.662513,0.762247 0.152981,0.584999 0.728361,0.824419 2.474529,1.029645 2.400294,0.282109 2.782307,0.132498 3.015919,-1.181148 0.100612,-0.565775 0.702977,-0.977181 1.973532,-1.347893 3.030801,-0.884316 3.831795,-1.49327 4.209573,-3.200336 0.189781,-0.85755 0.48212,-1.834009 0.649641,-2.169922 0.277132,-0.555687 4.136367,-2.187152 6.469427,-2.734908 0.522256,-0.122606 1.045723,-0.473523 1.163251,-0.77981 0.117535,-0.306288 0.697953,-0.571351 1.289827,-0.589029 0.591868,-0.01768 0.864738,-0.118679 0.60636,-0.224444 -0.274143,-0.112225 0.281367,-0.987467 1.334007,-2.101808 1.001987,-1.06072 1.986962,-2.589817 2.215892,-3.439994 0.273959,-1.017399 0.645733,-1.528402 1.108956,-1.524257 1.266587,0.01133 1.778333,0.616517 1.490629,1.762819 -0.32091,1.278622 0.213906,1.402787 1.225845,0.284606 0.663569,-0.733235 0.668579,-0.848673 0.0631,-1.454148 -0.795896,-0.795896 -0.829953,-1.429751 -0.128373,-2.389226 0.401917,-0.549656 1.258881,-0.764276 3.5606,-0.891736 2.50704,-0.138828 3.145204,-0.318888 3.689999,-1.041143 0.362298,-0.480309 0.863301,-0.746849 1.11334,-0.592323 0.250032,0.154532 0.814004,0.08863 1.253258,-0.146453 0.641738,-0.343448 0.91403,-0.262673 1.385987,0.411134 l 0.587341,0.838551 0.771362,-0.980619 c 1.022123,-1.299425 3.017676,-1.2017 4.526836,0.22168 1.363606,1.286096 4.716486,3.269968 6.795776,4.021017 2.00988,0.725972 2.82908,1.967861 2.49007,3.77492 -0.14301,0.762268 -0.52999,1.610008 -0.85997,1.883873 -1.18911,0.986875 -0.43616,2.841176 1.15368,2.841176 0.42706,0 1.94429,0.557348 3.37162,1.238555 1.90969,0.911409 2.91941,1.70985 3.82283,3.022931 0.67522,0.981408 1.82086,2.248608 2.54586,2.816003 l 1.31816,1.031619 -0.89237,0.831369 c -0.4908,0.45726 -1.16554,0.831375 -1.49942,0.831375 -1.2509,0 -3.55,4.1473 -2.61831,4.723116 0.21819,0.134853 0.30582,0.482011 0.19474,0.771478 -0.33051,0.861301 2.39949,0.395559 3.36998,-0.574924 0.46644,-0.466436 1.05884,-0.848067 1.31644,-0.848067 0.2576,0 1.45483,-0.482638 2.66052,-1.072524 1.99978,-0.9784 2.43213,-1.043614 4.92651,-0.743146 1.50389,0.181162 4.36823,0.296383 6.36519,0.256056 3.67983,-0.07431 5.51774,0.480044 5.53932,1.670784 0.005,0.274763 0.36735,0.957624 0.80526,1.51747 1.16999,1.495734 1.02683,3.285053 -0.40716,5.089507 -0.67181,0.84537 -1.22148,1.87183 -1.22148,2.28104 0,0.4092 -0.41225,0.9585 -0.91611,1.22065 -0.50386,0.26215 -0.96274,0.51371 -1.01973,0.55904 -0.37926,0.30158 0.91507,2.61492 1.55699,2.78279 0.48436,0.12666 0.88909,0.69538 1.04318,1.46585 0.13848,0.69239 0.39224,1.25889 0.56391,1.25889 0.17167,0 0.42771,0.46052 0.56897,1.02337 0.22156,0.88277 0.40943,0.98346 1.36741,0.73286 2.38064,-0.62274 4.0571,-0.36213 5.13206,0.79778 1.02465,1.10561 2.0424,1.32901 3.8498,0.84506 0.94744,-0.25369 0.94928,-0.26754 0.81433,-6.15212 -0.11282,-4.91943 -0.0339,-5.95338 0.47548,-6.23262 0.33591,-0.18412 1.92526,-1.077605 3.5319,-1.985529 1.62652,-0.919163 3.4655,-1.65077 4.14937,-1.65077 0.67551,0 1.34143,-0.183219 1.47984,-0.407159 0.69095,-1.117969 2.27306,-0.262503 5.96116,3.223268 l 3.84115,3.63043 -0.15916,2.8166 c -0.12744,2.25541 0.0115,3.1698 0.69731,4.58926 0.47104,0.97496 0.85644,2.01951 0.85644,2.32123 0,0.30173 0.31072,1.0228 0.69048,1.6024 0.69001,1.05309 0.69324,1.0536 4.78413,0.76742 4.69402,-0.32837 6.36815,-0.50842 6.49257,-0.69828 0.0482,-0.0735 0.41711,-0.95819 0.81983,-1.96592 1.1162,-2.79298 1.31272,-3.06337 2.13069,-2.93146 0.41689,0.0672 1.2626,0.14357 1.87936,0.16965 1.03755,0.0439 1.07361,0.10019 0.48242,0.75346 -0.44899,0.49613 -0.50293,0.79009 -0.18143,0.98879 0.28329,0.17508 0.35301,0.77193 0.18309,1.56728 -0.34097,1.59594 -0.88957,2.3024 -1.78792,2.3024 -1.42728,0 -2.49798,1.7789 -2.6314,4.3719 -0.14292,2.77759 -0.42097,3.43339 -1.38778,3.27316 -0.49369,-0.0818 -0.79134,0.34789 -1.089,1.57214 -0.22528,0.9266 -0.85817,2.04786 -1.40642,2.4917 -0.94764,0.76717 -0.95768,0.82014 -0.20358,1.07384 0.85428,0.2874 2.24656,1.98384 2.38123,2.90142 0.11544,0.78654 1.47342,2.2164 2.68622,2.82842 1.55798,0.7862 6.65111,1.64227 6.81661,1.14577 0.0893,-0.2679 0.71683,-0.21614 1.7673,0.14578 1.80528,0.62197 3.63186,0.3664 3.63186,-0.50815 0,-0.31163 0.20246,-0.5666 0.44991,-0.5666 0.24744,0 1.26435,-0.54966 2.25979,-1.22148 0.99544,-0.67182 1.95121,-1.22148 2.12393,-1.22148 0.17273,0 1.02145,-0.34409 1.88605,-0.76463 1.29013,-0.62754 2.17773,-0.72685 4.95018,-0.55388 2.34532,0.14632 3.56204,0.0582 3.97953,-0.28832 0.73103,-0.6067 1.59402,-0.16658 1.27966,0.65262 -0.31941,0.83239 2.35791,1.93458 3.37589,1.38978 0.74235,-0.3973 1.68172,0.10343 1.68172,0.89642 0,0.79111 1.12852,1.42298 2.18183,1.22163 0.69686,-0.13322 1.37277,0.0322 1.83284,0.44856 0.40087,0.36278 1.26475,0.68712 1.91974,0.72076 0.65499,0.0336 1.99063,0.31405 2.96809,0.62312 1.07031,0.33843 1.96103,0.41748 2.23938,0.19873 0.75957,-0.59691 3.70458,-0.81603 5.77333,-0.42954 1.30283,0.24339 2.11041,0.21735 2.4682,-0.0796 0.29247,-0.24274 0.70382,-0.335 0.9141,-0.20504 0.21029,0.12996 0.4774,-0.0114 0.59358,-0.31421 0.11619,-0.30278 0.76477,-0.66121 1.44129,-0.79651 0.89422,-0.17885 1.41892,-0.64408 1.92191,-1.70404 0.73971,-1.55883 0.77199,-1.41002 -1.13428,-5.22891 -0.2065,-0.4137 -0.25404,-0.87176 -0.10562,-1.01791 0.47596,-0.46869 6.99442,-0.12944 9.64271,0.50187 1.40925,0.33593 3.20354,0.72898 3.98732,0.87345 2.08036,0.38345 6.22536,1.90575 6.84902,2.51538 0.29591,0.28926 0.80309,0.52593 1.12705,0.52593 0.32395,0 1.82245,0.76097 3.32999,1.69103 1.50753,0.93007 3.93192,2.32588 5.38751,3.1018 1.4556,0.77592 3.11289,1.84551 3.68288,2.37688 0.56997,0.53136 1.90513,1.26214 2.96702,1.62397 l 1.9307,0.65785 -0.19253,3.21041 c -0.19787,3.29935 -0.4483,4.2056 -1.058,3.82878 -0.19234,-0.11887 -0.46686,0.15297 -0.61004,0.6041 -0.22752,0.71685 -0.61124,0.82023 -3.0445,0.82023 -2.58557,0 -2.90582,0.10165 -4.48985,1.42506 -0.93812,0.78379 -2.00958,1.42506 -2.381,1.42506 -0.37142,0 -1.56071,0.62951 -2.64289,1.39891 -2.21349,1.57373 -3.11931,1.50956 -3.11931,-0.22099 0,-1.44647 -0.99386,-1.59392 -1.07662,-0.15972 -0.0323,0.55968 0.0928,1.01761 0.27794,1.01761 0.18515,0 0.45802,0.3824 0.60636,0.84979 0.18596,0.58593 0.005,1.09656 -0.58331,1.6445 -0.8982,0.8368 -1.10677,1.77958 -0.47946,2.16728 0.61562,0.38047 4.91953,6.2371 4.91953,6.69434 0,0.2328 0.2526,1.20837 0.56134,2.16794 1.20125,3.7335 1.80165,5.87775 2.06264,7.36635 0.17008,0.97009 0.81211,2.11269 1.7159,3.0537 0.79427,0.82699 1.9232,2.2365 2.50871,3.13225 0.58551,0.89576 1.48955,2.15462 2.00898,2.79749 1.37067,1.69638 2.13576,3.7699 2.13576,5.78828 0,1.40018 0.18475,1.86705 0.8877,2.24325 0.81424,0.43577 0.83109,0.51648 0.20357,0.97533 -0.37626,0.27513 -0.68411,0.70262 -0.68411,0.94997 0,0.95073 -1.64178,1.38608 -3.4808,0.92301 -0.97115,-0.24454 -3.14536,-0.44462 -4.83157,-0.44462 -2.46474,0 -3.50861,-0.20963 -5.32405,-1.0692 -1.242,-0.58805 -2.35715,-1.22934 -2.47812,-1.42506 -0.12096,-0.19572 -0.45651,-0.35586 -0.74566,-0.35586 -1.32882,0 -6.035,-3.35478 -9.09627,-6.48422 -1.84749,-1.88864 -3.35907,-3.59656 -3.35907,-3.79538 0,-0.43243 -3.04671,-4.22639 -5.55938,-6.92292 -1.11259,-1.19401 -2.1507,-1.93401 -2.71313,-1.93401 -0.50105,0 -1.30055,-0.27286 -1.77668,-0.60636 -0.75079,-0.52587 -1.04653,-0.53076 -2.22818,-0.0368 -1.05773,0.44211 -1.67915,1.19251 -2.77813,3.35467 -0.7786,1.53185 -1.64891,3.0273 -1.93401,3.32322 -0.28511,0.29591 -0.51838,0.71208 -0.51838,0.92482 0,0.21273 -1.28256,2.59038 -2.85012,5.28367 -1.56758,2.69328 -2.85013,4.97333 -2.85013,5.06679 0,0.0934 -1.00913,1.96944 -2.24252,4.16887 -1.49813,2.67155 -2.43635,4.9254 -2.82646,6.78992 -0.67932,3.24682 -1.23585,4.05152 -2.04464,2.95642 -0.722,-0.97757 -0.88521,-0.60483 -1.21927,2.78469 -0.16292,1.65303 -0.56944,3.23982 -0.96231,3.75622 -0.59461,0.78156 -0.80331,0.83131 -1.65816,0.39516 -0.53787,-0.27441 -1.17914,-0.84741 -1.42506,-1.27332 -0.24592,-0.4259 -0.9232,-1.2504 -1.50506,-1.83222 -0.58186,-0.58181 -1.18923,-1.59519 -1.34971,-2.25197 -0.16048,-0.65676 -0.74763,-1.73587 -1.30479,-2.39801 -0.55715,-0.66215 -1.11782,-1.72798 -1.24593,-2.36853 -0.22864,-1.1432 -0.94546,-1.64687 -0.94546,-0.66431 0,1.11157 2.22373,6.25336 2.9192,6.74986 0.40988,0.29262 0.74525,0.7167 0.74525,0.9424 0,0.22569 0.55325,0.87589 1.22947,1.44489 0.67621,0.56899 1.20416,1.24425 1.17324,1.50057 -0.13379,1.10867 0.091,1.82506 0.84594,2.69546 0.44313,0.51094 0.93,1.59161 1.08194,2.40151 0.15194,0.80989 0.56807,1.95456 0.92474,2.5437 0.35666,0.58913 1.19815,2.0098 1.86997,3.15703 l 1.22148,2.08589 c -3.13723,-8.97707 -24.33371,5.40434 -28.34642,-3.21703 z m 15.52087,-47.97522 c -0.55985,-0.10293 -1.24693,-0.37525 -1.52685,-0.60515 -0.60256,-0.49488 -0.69838,-2.51922 -0.10179,-2.15052 0.22394,0.13841 0.40716,0.0576 0.40716,-0.17955 0,-0.23715 0.45805,-0.43118 1.0179,-0.43118 0.55984,0 1.0179,-0.15712 1.0179,-0.34916 0,-0.19204 1.11081,-0.46526 2.46846,-0.60717 1.35767,-0.1419 2.74612,-0.53564 3.08546,-0.87498 0.33934,-0.33934 0.96914,-0.80545 1.39955,-1.03581 1.47267,-0.78815 0.87297,0.69755 -0.64249,1.59169 -1.44456,0.85231 -1.75624,1.42984 -1.0179,1.88616 0.75006,0.46357 0.41746,1.01791 -0.61074,1.01791 -0.55985,0 -1.01789,0.14796 -1.01789,0.3288 0,0.30717 -2.92249,1.77321 -3.29231,1.65155 -0.0927,-0.0305 -0.62662,-0.13966 -1.18646,-0.24259 z m -37.45875,-1.89049 c 0,-0.65791 -1.38279,-1.04269 -4.27518,-1.18961 -0.89575,-0.0455 -1.60486,-0.22455 -1.57579,-0.39788 0.32316,-1.92698 0.60614,-2.73854 0.95487,-2.73854 0.22954,0 0.41734,0.27832 0.41734,0.61849 0,0.4558 0.26676,0.55154 1.0141,0.36398 0.73468,-0.18439 1.08646,-0.066 1.27667,0.42969 0.1815,0.47295 0.54765,0.61266 1.1859,0.45247 1.58683,-0.39827 5.88802,0.21927 5.88802,0.84537 0,0.46574 0.23605,0.45958 1.42506,-0.0372 1.32583,-0.55397 1.42506,-0.54365 1.42506,0.14826 0,0.85297 -0.73781,1.55022 -1.62864,1.53909 -0.33591,-0.004 -1.84749,0.12698 -3.35907,0.29149 -2.32879,0.25345 -2.74834,0.20375 -2.74834,-0.32559 z m 10.58617,-3.51172 c 0,-0.75302 0.21047,-1.22147 0.54878,-1.22147 0.3306,0 0.56258,0.48562 0.58351,1.22147 0.0229,0.80514 -0.16416,1.22148 -0.54878,1.22148 -0.3769,0 -0.58351,-0.43249 -0.58351,-1.22148 z m -59.3049,-1.44262 c -0.13261,-0.34556 -0.13476,-0.73464 -0.005,-0.86462 0.41084,-0.41084 1.49292,0.21931 1.49292,0.8694 0,0.81271 -1.17589,0.80894 -1.48814,-0.005 z m 62.15502,-0.97262 c 0,-0.85531 0.3382,-1.43457 1.1929,-2.04317 0.66009,-0.47002 1.2989,-0.67789 1.43023,-0.46539 0.28581,0.46245 -0.57647,2.48085 -1.05984,2.48085 -0.18799,0 -0.34181,0.27483 -0.34181,0.61073 0,0.33591 -0.27483,0.61075 -0.61074,0.61075 -0.404,0 -0.61074,-0.40408 -0.61074,-1.19377 z m -11.12529,-5.48458 c -0.25552,-0.66588 0.0447,-1.0577 0.81057,-1.0577 0.29858,0 0.54287,0.36644 0.54287,0.81432 0,0.92582 -1.0211,1.10944 -1.35344,0.24338 z m 2.57493,-2.64322 c 0,-0.47519 0.94041,-1.2646 1.50649,-1.2646 0.86111,0 0.59952,0.57522 -0.49177,1.08138 -0.5581,0.25885 -1.01472,0.3413 -1.01472,0.18322 z m -24.5476,-1.67177 c -0.24665,-0.94321 -0.26042,-0.93803 1.10937,-0.41723 1.31349,0.49938 1.35748,1.23156 0.074,1.23156 -0.62799,0 -1.04556,-0.28735 -1.18337,-0.81433 z m 24.09943,-1.94678 c -0.26022,-1.85652 -0.091,-2.73682 0.54996,-2.8609 0.56809,-0.10998 0.71253,0.14815 0.71253,1.27341 0,0.87893 -0.2304,1.49976 -0.61075,1.64572 -0.3359,0.12889 -0.62919,0.10269 -0.65174,-0.0582 z M 60.701291,148.29336 c 0,-0.188 0.485932,-0.56321 1.079842,-0.83382 1.140869,-0.51981 2.091747,-0.0811 1.588626,0.73298 -0.31933,0.51669 -2.668468,0.60546 -2.668468,0.10084 z m 34.201461,-0.0526 c 0,-0.21691 -0.29543,-0.28101 -0.656516,-0.14245 -0.556368,0.2135 -0.610683,0.0433 -0.356063,-1.11604 0.165254,-0.75239 0.345675,-2.54391 0.400943,-3.98115 0.08056,-2.09511 -0.04982,-2.76348 -0.657632,-3.37129 -0.416961,-0.41696 -0.720294,-1.215 -0.674073,-1.77341 0.05506,-0.66536 0.22202,-0.87731 0.484374,-0.61496 0.698286,0.69828 1.678074,0.43731 3.089683,-0.82298 l 1.370216,-1.22332 -1.315335,-1.28599 c -0.88064,-0.86099 -1.159454,-1.38233 -0.843656,-1.57751 0.347458,-0.21474 0.334871,-0.33712 -0.04776,-0.46467 -0.62391,-0.20797 -0.861008,-1.37474 -0.56922,-2.80119 0.149495,-0.73086 0.635782,-1.19626 1.622888,-1.55321 0.946723,-0.34233 1.409433,-0.76834 1.409433,-1.29762 0,-0.43338 0.27484,-0.78797 0.61074,-0.78797 0.44144,0 0.61075,0.45302 0.61075,1.63417 0,0.89879 0.22089,1.98787 0.49087,2.42018 0.400796,0.64178 0.363276,0.92702 -0.20446,1.55437 -0.38245,0.4226 -0.57724,0.88647 -0.43287,1.03084 0.14437,0.14437 0.0307,0.54175 -0.25254,0.88307 -0.28327,0.34132 -0.37855,0.62058 -0.21175,0.62058 0.16681,0 0.0605,0.29257 -0.23628,0.65015 -0.45069,0.54304 -0.44213,0.7088 0.0519,1.00629 1.853096,1.1158 1.813656,0.97794 1.794876,6.27311 -0.0151,4.25381 -0.13408,5.22267 -0.712526,5.80113 -0.43483,0.43483 -0.69443,0.5096 -0.69443,0.20002 0,-0.82957 -1.518762,-0.55139 -1.746609,0.31991 -0.1439,0.55027 -0.555374,0.81432 -1.268969,0.81432 -0.580813,0 -1.056024,-0.17747 -1.056024,-0.39438 z m -26.058256,-2.28608 c -0.559846,-0.31065 -1.338539,-0.56752 -1.730429,-0.57082 -1.132292,-0.01 -0.824725,-0.94374 0.638716,-1.94001 1.55139,-1.05615 2.720353,-1.18737 2.720353,-0.30537 0,0.3393 0.361924,0.61074 0.814323,0.61074 0.44788,0 0.808531,0.13742 0.801458,0.30537 -0.01374,0.32602 -1.901313,2.57192 -2.105198,2.50483 -0.06673,-0.022 -0.579377,-0.29409 -1.139223,-0.60474 z m 103.011544,-2.18143 c 0,-0.23716 -0.27483,-0.43119 -0.61074,-0.43119 -0.3359,0 -0.61074,-0.18323 -0.61074,-0.40717 0,-0.22393 0.16824,-0.40715 0.37386,-0.40715 0.20562,0 0.66368,-0.11122 1.0179,-0.24714 0.45808,-0.17579 0.64404,-0.006 0.64404,0.5867 0,0.45863 -0.18322,0.9471 -0.40715,1.0855 -0.22394,0.1384 -0.40717,0.0576 -0.40717,-0.17955 z m -98.049982,-0.86072 c -1.132067,-0.45402 -0.811702,-1.19911 0.515572,-1.19911 0.785902,0 1.44459,0.66496 1.44459,1.45836 0,0.27365 -0.942137,0.14905 -1.960162,-0.25925 z m 99.678632,-1.4027 c 0,-0.3359 0.26401,-0.61073 0.58671,-0.61073 0.86138,0 1.14093,0.6892 0.39555,0.97524 -0.90748,0.34822 -0.98226,0.32047 -0.98226,-0.36451 z m 33.59214,-23.81729 c -0.92057,-1.01723 -0.76814,-2.34558 0.30395,-2.64864 0.50386,-0.14243 1.48766,-0.55001 2.18622,-0.90572 2.71802,-1.38403 3.55272,0.70352 1.13137,2.82949 -1.68246,1.47722 -2.7477,1.69044 -3.62154,0.72487 z m -8.20389,-10.05521 c -0.48048,-0.094 -1.19597,-0.52708 -1.58997,-0.96245 -0.43751,-0.48345 -1.24649,-0.79157 -2.07832,-0.79157 -1.10786,0 -1.36195,0.15796 -1.36195,0.84667 0,0.74098 -0.1652,0.81186 -1.32327,0.56785 -2.34,-0.49306 -2.39025,-1.12036 -0.309,-3.85748 0.61956,-0.81482 0.87585,-0.91636 1.28456,-0.50895 0.68194,0.67977 1.56919,0.64685 1.56919,-0.0582 0,-0.68678 1.1133,-1.17521 1.76717,-0.77532 0.42105,0.25749 3.93685,2.87838 4.26847,3.18195 0.13967,0.12786 -1.10607,2.6785 -1.26196,2.58386 -0.0502,-0.0305 -0.48445,-0.13234 -0.96492,-0.22633 z M 36.003896,87.337046 c -0.152776,-0.398124 -0.518771,-0.524713 -1.039345,-0.359486 -0.621888,0.197377 -0.771574,0.08911 -0.662174,-0.478962 0.07775,-0.4037 0.512175,-0.833642 0.965398,-0.955432 1.21818,-0.327349 3.784954,-2.416101 4.069077,-3.311281 0.13584,-0.427996 0.522556,-0.77817 0.859367,-0.77817 0.336812,0 0.898013,-0.285628 1.247111,-0.634726 0.447465,-0.447471 1.237472,-0.597627 2.677706,-0.508955 1.436994,0.08847 2.099467,-0.03692 2.233421,-0.422713 0.148644,-0.428097 0.01372,-0.453904 -0.61474,-0.117562 -0.602242,0.322312 -0.998951,0.284225 -1.573964,-0.151095 -0.422828,-0.320106 -1.272631,-0.587844 -1.88846,-0.594965 -0.615836,-0.0071 -1.119692,-0.196172 -1.119692,-0.420112 0,-0.57811 -2.341664,-0.507464 -2.536332,0.07652 -0.114342,0.343026 -0.446552,0.28383 -1.142422,-0.203579 -0.579437,-0.405852 -0.744044,-0.687259 -0.402018,-0.687259 0.43227,0 0.461889,-0.117303 0.116772,-0.462419 -0.647313,-0.647313 0.180366,-1.396954 1.951265,-1.767291 2.259016,-0.472413 3.234216,-1.289289 3.234216,-2.709163 0,-0.95454 -0.146459,-1.196389 -0.610744,-1.008515 -0.335906,0.135928 -0.885575,0.358357 -1.221481,0.494285 -0.929619,0.376178 -0.728422,-0.525694 0.273898,-1.227751 0.780818,-0.546905 0.804705,-0.650295 0.203579,-0.880967 -0.374585,-0.143743 -0.681056,-0.524223 -0.681056,-0.845507 0,-0.478887 0.537674,-0.535435 2.983673,-0.313783 l 2.983667,0.270373 0.463175,-1.169501 c 0.647007,-1.633711 1.055357,-3.740489 0.601357,-3.102645 -0.591486,0.831035 -2.280105,-1.752104 -1.965294,-3.006396 0.231319,-0.921654 0.179923,-0.968012 -0.606517,-0.547124 -0.472583,0.252919 -1.107929,0.364429 -1.411868,0.2478 -0.303939,-0.116637 -0.632126,0.0067 -0.729307,0.274014 -0.135547,0.37289 -0.377417,0.36756 -1.038685,-0.02287 -0.989972,-0.584515 -1.300229,-0.635781 -1.231985,-0.203579 0.146615,0.928557 -0.14211,0.906563 -0.909714,-0.06929 -0.722309,-0.918257 -0.770975,-1.173824 -0.30123,-1.581758 0.308146,-0.267602 0.990135,-0.977147 1.515536,-1.576782 l 0.955276,-1.09023 -0.857625,-0.920551 c -0.996868,-1.070019 -1.089924,-1.581322 -0.287792,-1.581322 0.313401,0 1.486639,-0.616973 2.607189,-1.371045 2.476673,-1.666679 3.847547,-2.051788 5.063059,-1.422317 0.506565,0.262333 1.18496,0.598995 1.507537,0.748143 1.038066,0.479955 0.918904,1.168371 -0.2256,1.303312 -0.611834,0.07214 -1.197364,0.389391 -1.301175,0.704998 -0.141204,0.429282 0.0047,0.487648 0.579342,0.231693 2.385911,-1.062769 5.731134,1.065901 5.932467,3.775029 0.05408,0.727796 0.273122,1.323271 0.486749,1.323271 0.213627,0 0.265866,0.122545 0.116085,0.272326 -0.353251,0.353251 0.921075,1.763472 1.593534,1.763472 0.945562,0 3.094054,2.122836 2.899903,2.865274 -0.101347,0.387554 0.174737,1.012028 0.613515,1.387723 0.438778,0.375695 0.698899,0.940755 0.578042,1.255702 -0.12085,0.314946 -0.04452,0.68092 0.169638,0.813275 0.548137,0.338765 0.484761,1.970148 -0.09921,2.554126 -0.351937,0.35193 -0.358656,0.488587 -0.02403,0.488587 0.255505,0 0.577803,-0.183218 0.716202,-0.407158 0.400876,-0.648634 2.870564,-0.472121 4.272623,0.305368 1.204824,0.668123 1.270623,0.821778 1.055628,2.465271 -0.170019,1.29969 -0.557824,2.029181 -1.500349,2.822259 -2.015894,1.69627 -2.426176,2.183142 -2.17805,2.58463 0.127752,0.206703 0.679103,0.26368 1.225225,0.126609 0.812676,-0.203968 0.992947,-0.09638 0.992947,0.592616 0,0.638354 -0.61508,1.120202 -2.544753,1.993538 -2.095144,0.948223 -3.046831,1.139828 -5.3865,1.084464 -2.15722,-0.05105 -2.953211,0.08519 -3.304475,0.565578 -0.400684,0.547974 -0.638865,0.55986 -1.776412,0.08868 -1.078658,-0.446797 -1.372447,-0.449071 -1.642139,-0.01269 -0.192674,0.311754 -0.626564,0.417076 -1.049543,0.25477 -0.406212,-0.155887 -0.852485,-0.06406 -1.022041,0.210277 -0.222428,0.359902 -0.47758,0.310379 -0.977746,-0.189787 -1.100911,-1.100911 -3.468728,-0.766209 -3.468728,0.490323 0,0.934676 -1.251474,1.629885 -2.239384,1.244013 -1.724976,-0.673772 -3.257749,-0.395061 -4.607582,0.837823 -1.063606,0.971449 -1.37519,1.090699 -1.564018,0.598599 z m 4.339382,-22.310224 c 0,-0.301196 0.377628,-0.889381 0.839176,-1.307077 0.7099,-0.642452 0.894902,-0.669287 1.200883,-0.174198 0.23833,0.385626 0.138882,0.83147 -0.291543,1.307083 -0.771955,0.853002 -1.748516,0.950292 -1.748516,0.174192 z M 223.12962,189.46576 c 0.0219,-1.00409 -0.11417,-1.2557 -0.58212,-1.07613 -0.39169,0.15031 -0.61074,0.77855 -0.61074,1.75158 0,2.85549 1.12973,2.21579 1.19286,-0.67545 z m 37.53715,-7.45456 c -1.01981,-1.11655 -1.28528,-1.24046 -1.49376,-0.69716 -0.41513,1.08181 -0.0361,2.10706 0.9374,2.53524 0.50256,0.22107 0.92614,0.58751 0.94129,0.81433 0.0152,0.22682 0.2138,0.0283 0.44143,-0.44107 0.34124,-0.70367 0.19621,-1.09177 -0.82636,-2.21134 z m -1.67843,-5.28198 c 0,-0.77203 -0.20848,-1.22148 -0.56659,-1.22148 -0.31164,0 -0.68157,-0.45805 -0.82208,-1.0179 -0.14052,-0.55985 -0.43521,-1.0179 -0.65488,-1.0179 -0.63806,0 -0.46149,2.37686 0.25816,3.47519 0.91558,1.39734 1.78539,1.29118 1.78539,-0.21791 z m -97.81749,-23.71709 c -0.476,-0.72017 -1.0309,-0.93177 -2.59441,-0.98936 l -1.98891,-0.0733 1.62864,0.43639 c 0.89575,0.24001 1.99006,0.68522 2.43177,0.98936 1.11676,0.76893 1.22258,0.69544 0.52291,-0.36313 z m 93.85985,-2.85021 c -0.075,-1.27792 0.0411,-1.52676 0.71254,-1.52676 0.44118,0 0.80214,-0.18322 0.80214,-0.40716 0,-0.45248 -1.21311,-0.54106 -2.20374,-0.16092 -0.35294,0.13544 -0.54033,0.41028 -0.41643,0.61074 0.12389,0.20048 -0.42038,0.3645 -1.20949,0.3645 -1.00181,0 -1.56197,0.23766 -1.85626,0.78756 -0.62255,1.16325 -0.55422,1.24825 1.00358,1.24825 0.78378,0 1.42506,0.19596 1.42506,0.43547 0,0.23951 0.41225,0.3769 0.91611,0.30528 0.78361,-0.11136 0.90315,-0.35102 0.82649,-1.65696 z m -44.27472,-1.08842 c -0.31525,-0.60962 -0.86009,-1.34651 -1.21076,-1.63754 -0.53413,-0.44328 -0.63759,-0.42195 -0.63759,0.13145 0,0.36332 -0.16362,0.66059 -0.3636,0.66059 -0.99825,0 -0.70107,1.2408 0.47561,1.98582 1.71131,1.08353 2.58845,0.50748 1.73634,-1.14032 z m -32.83103,-3.63624 c -0.60174,-0.20682 -0.90742,0.21262 -0.56212,0.77132 0.21891,0.3542 0.38398,0.33489 0.63846,-0.0747 0.2016,-0.32447 0.1701,-0.61192 -0.0763,-0.69661 z m -13.39779,-3.72382 c 0,-0.22394 -0.18323,-0.40717 -0.40716,-0.40717 -0.22394,0 -0.40716,0.18323 -0.40716,0.40717 0,0.22393 0.18322,0.40716 0.40716,0.40716 0.22393,0 0.40716,-0.18323 0.40716,-0.40716 z m 18.15488,-1.88458 c -0.21464,-0.55934 -0.0462,-0.62054 1.07613,-0.39114 2.74894,0.56185 5.00959,0.72451 4.43391,0.31902 -0.80249,-0.56524 -0.19152,-1.29844 1.09409,-1.31297 1.02547,-0.0116 1.04349,-0.042 0.28134,-0.47416 -0.44787,-0.25397 -0.92183,-0.62308 -1.05325,-0.82025 -0.13141,-0.19717 -1.66954,-0.30444 -3.41807,-0.23838 -2.68524,0.10145 -3.24903,0.24662 -3.62909,0.93444 -0.24747,0.44787 -0.61267,0.93238 -0.81155,1.07668 -0.51562,0.37411 0.62412,1.53592 1.52485,1.55436 0.53395,0.0109 0.68133,-0.17933 0.50164,-0.6476 z m 9.32844,0.0524 c 0,-0.22394 -0.41225,-0.4657 -0.91611,-0.53726 -0.63036,-0.0895 -0.91611,0.0781 -0.91611,0.53726 0,0.45921 0.28575,0.6268 0.91611,0.53728 0.50386,-0.0716 0.91611,-0.31334 0.91611,-0.53728 z m -39.69813,-2.23472 c 0,-0.50502 -1.29364,-2.04046 -1.71913,-2.04046 -0.66468,0 -0.30221,1.97987 0.39586,2.16229 1.18494,0.30966 1.32327,0.29693 1.32327,-0.12183 z m -7.50338,-7.74045 c 0,-0.63054 -0.18687,-0.75682 -0.82886,-0.56016 -1.17591,0.36022 -1.29542,0.55171 -0.6135,0.98297 0.94984,0.6007 1.44236,0.45631 1.44236,-0.42281 z m -11.53136,-5.56299 c -0.27992,-0.11295 -0.73798,-0.11295 -1.0179,0 -0.27993,0.11295 -0.0509,0.20537 0.50894,0.20537 0.55985,0 0.78888,-0.0924 0.50896,-0.20537 z m -11.31609,-10.69554 c 0.12884,-0.20846 0.048,-0.49411 -0.17955,-0.63477 -0.22759,-0.14066 -0.4138,0.0299 -0.4138,0.37902 0,0.71519 0.24432,0.8205 0.59335,0.25575 z"
     id="Empire"
     style="opacity:0.5;fill:url(#radialGradient2516);fill-opacity:1"
     inkscape:connector-curvature="0" />
  <g
     id="Wash out"
     style="fill:#ffffff"
     transform="translate(-2.3652656,10.14319)">
    <use
       id="use4125"
       style="fill:#ffffff;fill-opacity:1;filter:url(#filter3277)"
       x="0"
       y="0"
       width="294"
       height="232.34036"
       xlink:href="#SPQR" />
    <use
       id="use4123"
       style="fill:#ffffff;fill-opacity:1;filter:url(#filter3277)"
       x="0"
       y="0"
       width="294"
       height="232.34036"
       xlink:href="#SPQR" />
    <use
       id="Shadow"
       style="filter:url(#filter3277)"
       x="0"
       y="0"
       width="294"
       height="232.34036"
       xlink:href="#SPQR" />
  </g>
  <g
     id="Text Hack"
     style="fill:#af8000"
     transform="translate(-2.3652656,10.14319)">
    <path
       d="m 71.391367,109.2956 c 0,-1.00539 -0.188686,-1.94128 -0.565998,-2.80768 -0.377372,-0.86639 -0.873448,-1.68374 -1.48827,-2.45209 -0.614841,-0.7683 -1.313467,-1.50189 -2.095856,-2.20074 -0.78241,-0.6988 -1.578663,-1.38334 -2.388758,-2.053637 -0.670273,-0.58667 -1.333716,-1.159499 -1.990328,-1.718504 -0.656633,-0.558945 -1.243526,-1.138826 -1.76072,-1.739602 -0.517195,-0.600757 -0.929507,-1.222408 -1.236918,-1.864976 -0.307411,-0.642527 -0.461116,-1.327067 -0.461116,-2.053641 0,-0.699232 0.125777,-1.335171 0.377332,-1.907817 0.251554,-0.572586 0.593946,-1.068461 1.027154,-1.487624 0.433188,-0.419102 0.936095,-0.740376 1.508721,-0.963821 0.572606,-0.223384 1.180415,-0.335096 1.823386,-0.335136 0.671122,4e-5 1.292976,0.10472 1.865622,0.314039 0.572606,0.209379 1.082546,0.509757 1.529839,0.901134 0.447253,0.391458 0.789624,0.866437 1.027134,1.424957 0.237469,0.558581 0.356214,1.187488 0.356234,1.8867 -2e-5,0.195314 0.111692,0.320889 0.335137,0.376705 0.223404,0.0559 0.405037,0.01388 0.5449,-0.125979 0.391397,-0.530391 0.615023,-1.193834 0.6709,-1.990329 0.05584,-0.796434 0.08376,-1.572014 0.08378,-2.326738 l 0,-1.509367 c -2e-5,-0.195254 -0.111733,-0.320607 -0.335137,-0.376059 -1.285963,-0.363247 -2.669554,-0.54488 -4.150751,-0.5449 -1.06169,2e-5 -2.221229,0.13966 -3.478598,0.4189 -1.257389,0.279321 -2.430973,0.71934 -3.520793,1.320055 -1.089821,0.600797 -2.004818,1.362311 -2.745013,2.284523 -0.740174,0.922293 -1.110271,2.025956 -1.110271,3.31103 0,0.866416 0.188464,1.711694 0.565371,2.535855 0.376908,0.824221 0.872782,1.641571 1.487624,2.452091 0.614821,0.81056 1.320479,1.607035 2.116954,2.389401 0.796455,0.78243 1.59976,1.56462 2.409875,2.34657 l 0,-0.0422 c 0.726534,0.72657 1.439225,1.43924 2.138052,2.13807 0.698828,0.69883 1.32048,1.39042 1.864976,2.07474 0.544475,0.68434 0.984494,1.37593 1.320055,2.07474 0.335541,0.69885 0.503331,1.39745 0.503331,2.09586 0,0.72655 -0.174601,1.38316 -0.523802,1.96985 -0.349202,0.5867 -0.796253,1.0896 -1.341153,1.50872 -0.54492,0.41915 -1.152729,0.74062 -1.823407,0.96447 -0.670697,0.22385 -1.327512,0.33577 -1.970483,0.33577 -0.726554,0 -1.425159,-0.11192 -2.095857,-0.33577 -0.670698,-0.22385 -1.271454,-0.54532 -1.802289,-0.96447 -0.530835,-0.41912 -0.942925,-0.92906 -1.236271,-1.52983 -0.293345,-0.60076 -0.411888,-1.27847 -0.355587,-2.03317 l 0.04092,-0.67026 c 0,-0.11171 -0.04179,-0.19549 -0.125353,-0.25135 -0.08358,-0.0559 -0.195274,-0.0838 -0.335137,-0.0838 -0.111712,0 -0.216594,0.0209 -0.314665,0.0627 -0.09807,0.0418 -0.160738,0.11855 -0.188019,0.23024 -0.0563,0.22427 -0.112359,0.46901 -0.168215,0.73421 -0.05586,0.26522 -0.11149,0.55175 -0.166922,0.85959 -0.111712,0.39056 -0.209561,0.78154 -0.293568,1.17295 -0.08399,0.39142 -0.125979,0.81054 -0.125979,1.25737 0,0.72656 0.174601,1.3414 0.523802,1.84451 0.349182,0.50313 0.78922,0.90135 1.320055,1.1947 0.530835,0.29334 1.117729,0.50291 1.760721,0.6287 0.642971,0.12578 1.257792,0.18867 1.844484,0.18867 1.201532,0 2.458901,-0.21659 3.772146,-0.6498 1.313224,-0.43319 2.514757,-1.041 3.604577,-1.82339 1.0898,-0.78241 1.990955,-1.7185 2.703444,-2.80832 0.712448,-1.08982 1.068702,-2.3054 1.068702,-3.6468 l 0,0 z m 16.371557,-7.5865 c -2.1e-5,-0.55853 -0.230457,-1.09641 -0.691371,-1.61361 -0.460914,-0.517172 -1.012867,-0.775779 -1.655839,-0.775799 -0.670253,2e-5 -1.194055,0.209581 -1.571407,0.628704 -0.377332,0.419145 -0.566018,0.908405 -0.565998,1.467775 -2e-5,0.53043 0.174581,1.0681 0.523803,1.613 0.349181,0.54492 0.845278,0.81737 1.48825,0.81735 0.278856,2e-5 0.564946,-0.0558 0.858292,-0.16757 0.293346,-0.11169 0.558985,-0.26539 0.796899,-0.46111 0.237914,-0.1957 0.433612,-0.42616 0.587116,-0.69137 0.153503,-0.2652 0.230234,-0.53765 0.230255,-0.81737 l 0,0 z m 32.471896,-7.711845 c -2e-5,-1.704621 -0.30743,-3.053049 -0.92223,-4.045243 -0.61486,-0.992153 -1.41134,-1.739582 -2.38943,-2.242307 -0.97811,-0.502664 -2.09585,-0.823938 -3.35322,-0.963821 -1.25739,-0.139822 -2.52864,-0.209743 -3.81372,-0.209783 l -3.39479,0 c -0.41957,4e-5 -0.83891,0.01411 -1.25804,0.04221 -0.41912,0.02817 -0.85211,0.02817 -1.29893,0 -0.475,-0.02811 -0.93592,-0.04218 -1.38275,-0.04221 -0.41956,4e-5 -0.86682,4e-5 -1.34179,0 l -0.88006,0 c -0.223406,4e-5 -0.377131,0.0559 -0.461118,0.167568 -0.08401,0.111732 -0.08421,0.23753 -6.46e-4,0.377332 0.139862,0.307875 0.370524,0.496561 0.692014,0.566018 0.32148,0.06954 0.64978,0.132426 0.98492,0.188686 0.19614,0.02817 0.39184,0.06313 0.58714,0.104882 0.19527,0.04181 0.36987,0.125595 0.52378,0.251352 0.15393,0.125798 0.2797,0.314484 0.37735,0.565998 0.0976,0.251595 0.14645,0.586731 0.14645,1.00541 l 0,23.388833 c 0,0.6984 -0.0138,1.25717 -0.0416,1.67629 -0.0277,0.41912 -0.12555,0.75446 -0.29354,1.00603 -0.168,0.25156 -0.41957,0.44728 -0.75469,0.58712 -0.33513,0.13984 -0.79605,0.26564 -1.38274,0.37733 -0.2797,0.0554 -0.41251,0.18804 -0.39845,0.39783 0.0141,0.20976 0.16096,0.3283 0.44067,0.35558 1.70379,0.0844 3.40097,0.11256 5.09155,0.0844 1.69058,-0.0282 3.37412,-0.0422 5.05063,-0.0422 0.19613,0 0.34302,-0.0488 0.44067,-0.14647 0.0976,-0.0976 0.10466,-0.21637 0.0211,-0.35624 -0.13986,-0.30698 -0.34942,-0.48158 -0.62868,-0.5238 -0.27928,-0.0422 -0.61464,-0.0774 -1.00604,-0.10553 -0.22342,-0.0273 -0.47499,-0.062 -0.75468,-0.10423 -0.2797,-0.0422 -0.48906,-0.13283 -0.62806,-0.27183 -0.0563,-0.0563 -0.12642,-0.23811 -0.21041,-0.54554 -0.084,-0.30741 -0.16076,-0.64275 -0.23023,-1.00604 -0.0695,-0.36327 -0.13219,-0.70544 -0.18804,-1.02649 -0.0559,-0.32107 -0.0838,-0.53786 -0.0838,-0.65045 l 0,-24.100023 c 0.39055,-0.139822 0.80947,-0.2656 1.25675,-0.377332 0.44725,-0.111692 0.90839,-0.167528 1.38338,-0.167568 0.97809,4e-5 1.8513,0.230477 2.61964,0.69137 0.76833,0.460935 1.41791,1.054658 1.94876,1.781192 0.53082,0.726553 0.93608,1.550956 1.2158,2.473188 0.27969,0.922273 0.41955,1.844302 0.41955,2.76611 0,2.039798 -0.57988,3.632526 -1.7396,4.778183 -1.15976,1.14568 -2.77359,1.7185 -4.8415,1.7185 -0.13986,0 -0.2797,0 -0.41954,0 -0.13987,0 -0.27931,-0.0141 -0.41828,-0.0422 -0.13986,2e-5 -0.2518,0.049 -0.33578,0.1471 -0.084,0.0981 -0.13986,0.22386 -0.16757,0.37735 -0.0277,0.1535 -0.0207,0.29314 0.0211,0.4189 0.0418,0.1258 0.13259,0.20275 0.27245,0.23088 0.75468,0.22344 1.56478,0.33516 2.43034,0.33514 1.31323,2e-5 2.52883,-0.2863 3.6468,-0.85894 1.11793,-0.57261 2.08197,-1.32707 2.89209,-2.26341 0.81009,-0.936315 1.4388,-1.991155 1.88607,-3.164557 0.44725,-1.173362 0.67088,-2.374895 0.6709,-3.604578 l 0,0 z m 16.40098,7.711845 c -2e-5,-0.55853 -0.23048,-1.09641 -0.69137,-1.61361 -0.46092,-0.517172 -1.01287,-0.775779 -1.65584,-0.775799 -0.67025,2e-5 -1.19406,0.209581 -1.57141,0.628704 -0.37733,0.419145 -0.56602,0.908405 -0.56602,1.467775 0,0.53043 0.17461,1.0681 0.52381,1.613 0.3492,0.54492 0.8453,0.81737 1.48827,0.81735 0.27885,2e-5 0.56494,-0.0558 0.85829,-0.16757 0.29334,-0.11169 0.55898,-0.26539 0.7969,-0.46111 0.23791,-0.1957 0.43361,-0.42616 0.58711,-0.69137 0.15351,-0.2652 0.23024,-0.53765 0.23026,-0.81737 l 0,0 z m 71.36886,20.24474 -0.46176,-0.67025 c -1.36872,0.55854 -2.77256,0.99152 -4.21152,1.29893 -1.43908,0.30741 -2.91327,0.46114 -4.4226,0.46114 -2.1234,0 -4.22606,-0.25838 -6.308,-0.77515 -2.08203,-0.51677 -4.14293,-1.19428 -6.18267,-2.03253 -2.03981,-0.83826 -4.03077,-1.78844 -5.97288,-2.85054 -1.94217,-1.06209 -3.82141,-2.13805 -5.63775,-3.22787 2.1796,-1.64836 3.85634,-3.68814 5.03016,-6.11936 1.17379,-2.43117 1.7607,-4.98772 1.76072,-7.66964 -2e-5,-2.291314 -0.42619,-4.380118 -1.27848,-6.266433 -0.85235,-1.886255 -2.0121,-3.507133 -3.47923,-4.862593 -1.46717,-1.35542 -3.19273,-2.403247 -5.17661,-3.143462 -1.98396,-0.740154 -4.09344,-1.110251 -6.32849,-1.110271 -2.3195,2e-5 -4.48506,0.412111 -6.49669,1.236271 -2.01165,0.824201 -3.76511,1.969877 -5.26039,3.437009 -1.49531,1.467193 -2.67594,3.19273 -3.54192,5.176632 -0.86597,1.983943 -1.29895,4.135211 -1.29895,6.453827 0,2.40391 0.39121,4.61168 1.1736,6.62331 0.78239,2.01165 1.88607,3.73698 3.31103,5.17599 1.42494,1.43902 3.14344,2.55677 5.15552,3.35324 2.01205,0.79646 4.24732,1.1947 6.70582,1.1947 0.64295,0 1.25779,-0.0699 1.8445,-0.20978 0.58667,-0.13984 1.15973,-0.29335 1.71914,-0.46049 0.47495,-0.13984 0.91497,-0.27265 1.32007,-0.39845 0.40502,-0.12578 0.76105,-0.18867 1.06806,-0.18867 l 0.20978,0 c 0.55937,0.22343 1.16035,0.48885 1.80294,0.79626 0.6425,0.30743 1.24306,0.6287 1.80164,0.96382 0.30781,0.16799 0.67811,0.36371 1.11092,0.58713 0.43274,0.22341 0.80304,0.40504 1.11091,0.5449 1.45307,0.69841 2.98291,1.39701 4.58952,2.09586 1.60655,0.69881 3.23424,1.32068 4.88306,1.8656 1.64875,0.5449 3.32526,0.99195 5.02954,1.34116 1.70418,0.3492 3.39495,0.5238 5.07238,0.5238 2.03971,0 4.00957,-0.26542 5.90955,-0.79625 1.89987,-0.53084 3.71623,-1.31345 5.44908,-2.34784 l 0,0 z m -31.22605,-21.33455 c -2e-5,1.64924 -0.21661,3.23513 -0.64978,4.75772 -0.43323,1.52258 -1.06213,2.93367 -1.88672,4.23326 -0.82462,1.2996 -1.83769,2.45231 -3.03921,3.45813 -1.20155,1.00581 -2.57063,1.788 -4.10728,2.34654 -2.0398,-0.25156 -3.91201,-0.86618 -5.61663,-1.84386 -1.70466,-0.97766 -3.17161,-2.20712 -4.40085,-3.68836 -1.22924,-1.48122 -2.18623,-3.15793 -2.87099,-5.03016 -0.68476,-1.87221 -1.02713,-3.82821 -1.02713,-5.868006 0,-1.788183 0.28651,-3.408839 0.85956,-4.861946 0.57305,-1.453067 1.38337,-2.696593 2.431,-3.730577 1.04758,-1.033924 2.29792,-1.830197 3.75102,-2.388778 1.45307,-0.558521 3.05966,-0.837781 4.81975,-0.837821 1.87262,4e-5 3.53549,0.370117 4.9886,1.110291 1.45306,0.740215 2.68252,1.725133 3.68836,2.954776 1.00579,1.229683 1.76731,2.654842 2.28452,4.275477 0.51716,1.620676 0.77576,3.325115 0.77578,5.113314 l 0,0 z m 21.33711,1.08981 c 0,-0.55853 -0.23045,-1.09641 -0.69137,-1.61361 -0.46091,-0.517172 -1.01284,-0.775779 -1.65582,-0.775799 -0.67027,2e-5 -1.19407,0.209581 -1.5714,0.628704 -0.37735,0.419145 -0.56602,0.908405 -0.56602,1.467775 0,0.53043 0.1746,1.0681 0.5238,1.613 0.3492,0.54492 0.8453,0.81737 1.48827,0.81735 0.27884,2e-5 0.56495,-0.0558 0.85829,-0.16757 0.29335,-0.11169 0.55897,-0.26539 0.7969,-0.46111 0.23792,-0.1957 0.43362,-0.42616 0.58712,-0.69137 0.15348,-0.2652 0.23023,-0.53765 0.23023,-0.81737 l 0,0 z m 43.1603,15.80234 -0.25198,-0.71249 c -1.06171,0.16715 -2.10952,-0.0217 -3.14346,-0.56664 -1.03399,-0.5449 -2.04683,-1.2853 -3.03856,-2.22121 -0.99177,-0.93589 -1.94175,-1.99756 -2.84989,-3.18501 -0.90821,-1.18745 -1.78142,-2.34016 -2.61966,-3.45813 -0.50313,-0.6711 -0.99923,-1.3418 -1.48825,-2.01207 -0.48909,-0.67025 -0.95703,-1.24328 -1.40384,-1.71913 0.6148,-0.58669 1.20852,-1.23627 1.78117,-1.94876 0.5726,-0.71245 1.08254,-1.47374 1.52984,-2.283878 0.44725,-0.810096 0.81052,-1.641309 1.08982,-2.49366 0.27924,-0.852311 0.41888,-1.711674 0.4189,-2.57809 -2e-5,-0.195254 -0.007,-0.404816 -0.0211,-0.628685 -0.0141,-0.223828 -0.0488,-0.405664 -0.10426,-0.545546 -0.33513,-1.396787 -0.85212,-2.521346 -1.55093,-3.373697 -0.69885,-0.85229 -1.53028,-1.508903 -2.49429,-1.969857 -0.96406,-0.460873 -2.01187,-0.768304 -3.14346,-0.922252 -1.13161,-0.153887 -2.2841,-0.230841 -3.45748,-0.230881 l -2.22184,0 c -0.25157,4e-5 -0.49609,0.0071 -0.73358,0.02112 -0.23749,0.01409 -0.48203,0.02114 -0.73359,0.0211 -0.44685,4e-5 -0.87983,0.0071 -1.29894,0.0211 -0.41914,0.01411 -0.86619,0.0071 -1.34117,-0.0211 l -2.76675,0 -0.75469,0 c -0.19527,4e-5 -0.33491,0.04907 -0.4189,0.147097 -0.084,0.09809 -0.0838,0.216635 6.3e-4,0.355608 0.0836,0.279725 0.26499,0.461581 0.54427,0.545547 0.27928,0.08403 0.61462,0.13966 1.00604,0.166921 0.19527,0.02817 0.39077,0.06333 0.58647,0.105529 0.19571,0.04223 0.37735,0.12602 0.54492,0.251352 0.16754,0.125373 0.30718,0.327902 0.4189,0.607587 0.11171,0.279725 0.16757,0.657057 0.16757,1.132015 l 0,23.21999 c 0,0.67112 -0.0139,1.22327 -0.0416,1.65646 -0.0277,0.43321 -0.11855,0.77538 -0.27245,1.02651 -0.15393,0.25113 -0.39845,0.44663 -0.73359,0.58647 -0.33514,0.13986 -0.81012,0.26564 -1.42494,0.37735 -0.2797,0.0563 -0.41251,0.18909 -0.39845,0.39845 0.0141,0.20934 0.16096,0.32808 0.44067,0.35623 1.70464,0.0836 3.40928,0.12536 5.11394,0.12536 1.70378,0 3.40801,0 5.11268,0 0.2234,0 0.37711,-0.0697 0.46111,-0.20914 0.084,-0.13944 0.042,-0.27906 -0.126,-0.41892 -0.25157,-0.22343 -0.53788,-0.36307 -0.85892,-0.41892 -0.32107,-0.0558 -0.63553,-0.0978 -0.94337,-0.12598 -0.13899,-0.0281 -0.32745,-0.0563 -0.56537,-0.0844 -0.23793,-0.0281 -0.42637,-0.0699 -0.56537,-0.12536 -0.0844,-0.0563 -0.16844,-0.23791 -0.25198,-0.5449 -0.0836,-0.30698 -0.16736,-0.64915 -0.25135,-1.0265 -0.084,-0.37733 -0.14689,-0.73379 -0.18869,-1.06935 -0.0418,-0.33556 -0.0627,-0.57283 -0.0627,-0.71184 l 0,-7.79627 c 0.2234,-0.0281 0.46089,-0.0422 0.71247,-0.0422 0.2797,2e-5 0.53126,2e-5 0.75468,0 0.58669,2e-5 1.25034,0.0559 1.99097,0.16757 0.7406,0.11173 1.36203,0.39101 1.86431,0.83784 0.67111,0.58669 1.32091,1.30621 1.94941,2.15852 0.62846,0.85233 1.26418,1.72576 1.90717,2.62029 0.64295,0.92183 1.30662,1.82979 1.99095,2.72389 0.68432,0.89412 1.42472,1.69763 2.22121,2.41052 0.79646,0.7129 1.66283,1.28575 2.59919,1.71851 0.9363,0.43276 1.99114,0.64915 3.16456,0.64915 0.72652,0 1.43898,-0.0838 2.13743,-0.25135 0.69836,-0.16757 1.36906,-0.40483 2.01205,-0.71182 l 0,0 z M 226.73108,96.469797 c -2e-5,0.503149 -0.035,1.020122 -0.1049,1.550936 -0.0699,0.530856 -0.18869,1.047848 -0.35623,1.550957 -0.16759,0.50313 -0.38396,0.9713 -0.64916,1.40447 -0.26521,0.43322 -0.59352,0.80352 -0.98492,1.11093 -0.39143,0.30743 -0.89456,0.48907 -1.50936,0.5449 -0.61487,0.0559 -1.15977,0.0838 -1.63475,0.0838 -1.20153,2e-5 -2.36085,-0.084 -3.47793,-0.252 l 0,-13.790254 c 0.75382,-0.251534 1.53623,-0.377311 2.34719,-0.377352 1.06167,4.1e-5 1.99073,0.244563 2.78723,0.733586 0.79645,0.489085 1.4601,1.117991 1.99095,1.88672 0.53082,0.768769 0.92884,1.641996 1.19406,2.619639 0.26519,0.977704 0.3978,1.95559 0.39782,2.933678 l 0,0 z"
       id="SPQR"
       inkscape:connector-curvature="0" />
  </g>
  <g
     id="g3056"
     transform="matrix(0.40541313,0,0,0.33606381,-0.20574716,11.643365)"
     style="fill:#b08000;fill-opacity:0.35294118;stroke:none">
    <g
       transform="translate(-13.780518,-162.03807)"
       style="fill:#b08000;fill-opacity:0.35294118;stroke:none;display:inline"
       inkscape:label="wood"
       id="layer3" />
    <g
       transform="translate(-13.780518,-197.19186)"
       style="fill:#b08000;fill-opacity:0.56862745;stroke:none;display:inline"
       id="layer1"
       inkscape:label="Layer 1">
      <g
         id="g22249"
         style="fill:#b08000;fill-opacity:0.56862745;stroke:none">
        <path
           style="fill:#b08000;fill-opacity:0.56862745;stroke:none;display:inline"
           d="M 209.27003,228.48717 C 126.4415,284.23868 71.502116,381.43789 71.502117,492.04375 c 0,172.91976 134.165743,313.24482 299.495473,313.24484 165.32973,0 299.52716,-140.3251 299.52717,-313.24484 0,-114.14724 -58.5102,-214.06504 -145.81786,-268.82706 -19.97232,-9.62545 -109.79462,-64.7486 0,9.94428 27.87138,18.10281 52.91519,40.93635 73.36847,67.65426 50.72355,64.73881 73.04721,152.25245 61.48373,235.0828 -11.21167,85.65805 -60.05895,164.25772 -128.95736,211.31596 -67.71391,47.29219 -154.87151,61.45327 -233.51139,39.81028 -83.9225,-22.091 -155.89989,-86.607 -191.61372,-168.92019 -38.301929,-86.02751 -33.718859,-191.15511 10.39519,-273.79919 22.15822,-42.64278 54.81575,-78.76579 93.39821,-105.64141 109.04759,-81.63547 27.9658,-29.22285 0,-10.17631 z"
           id="path18706"
           sodipodi:nodetypes="cssscccccccccc"
           inkscape:connector-curvature="0" />
        <path
           style="fill:#b08000;fill-opacity:0.56862745;stroke:none"
           d="m 242.66654,842.78293 c 0.003,-1.15358 58.14668,-30.15428 68.56088,-34.19639 14.37277,-5.57854 38.06321,-9.59251 46.46023,-7.87192 l 6.10302,1.25054 -6.81552,8.15764 c -3.74851,4.4867 -9.97658,10.35833 -13.84015,13.04806 -9.32288,6.49042 -32.13314,14.25205 -49.59508,16.87571 -12.3011,1.84826 -50.87615,3.92309 -50.87338,2.73636 z m 231.51474,-0.6364 c -26.10784,-1.57665 -28.09448,-1.94068 -52.43368,-9.60763 -14.56162,-4.587 -18.2858,-6.804 -29.52703,-17.57746 l -12.86367,-12.32845 5.68009,-1.59084 c 14.61317,-4.09278 61.50938,9.40771 82.04811,23.62005 3.90291,2.70072 9.33185,5.57882 12.0643,6.39576 6.22786,1.86198 23.84691,10.86853 23.84691,12.19013 0,0.54102 -1.11783,0.83853 -2.48405,0.66112 -1.36623,-0.17744 -13.21516,-0.97064 -26.33098,-1.76268 z M 190.00561,807.2158 c -10.92983,-3.39704 -23.76121,-7.28948 -28.51418,-8.64991 l -8.64175,-2.47353 14.60347,-2.52803 c 8.03191,-1.39043 23.27091,-4.30186 33.86445,-6.46987 29.54056,-6.04559 59.12946,-4.28949 78.26988,4.64532 l 5.11689,2.38858 -6.38927,5.71525 c -16.73596,14.97041 -53.88429,18.0716 -88.30949,7.37219 z m 295.24387,2.35341 c -14.21522,-5.23757 -27.20087,-14.35259 -23.48362,-16.48384 7.76637,-4.45288 33.67939,-9.93274 46.96962,-9.93274 12.25304,0 44.52486,5.05777 75.31209,11.80318 5.80381,1.27161 3.35254,2.39252 -22.05104,10.08352 -24.92975,7.54753 -30.96792,8.6435 -47.26816,8.57943 -13.38102,-0.0526 -21.7517,-1.20248 -29.47889,-4.04955 z M 320.87997,793.14726 C 308.3347,789.42312 282.2316,759.152 277.47304,742.80931 l -1.37255,-4.71382 8.58276,4.48595 c 4.72052,2.46727 14.76506,6.64026 22.32121,9.27331 25.1307,8.7571 36.68855,18.22488 43.93298,35.98842 l 3.06903,7.52529 -13.44057,-0.18363 c -7.3923,-0.10098 -16.25098,-1.0179 -19.68593,-2.03757 z m 70.83077,-1.40633 c 0,-5.5491 14.16829,-23.6456 23.42829,-29.92383 4.08651,-2.77065 13.15899,-6.96438 20.16111,-9.31941 7.0021,-2.35503 17.13715,-6.45954 22.5223,-9.12116 l 9.79125,-4.83928 -1.26571,5.16668 c -3.05824,12.4838 -22.43253,37.76183 -34.49198,45.00245 -6.92521,4.15793 -12.31858,5.53491 -24.51203,6.25807 -14.70326,0.87203 -15.63323,0.68029 -15.63323,-3.22352 z m -125.19629,-9.99904 c -21.47734,-7.84833 -36.67411,-25.61782 -44.79053,-52.37323 -2.74578,-9.05136 -5.54586,-20.40875 -6.22239,-25.23863 l -1.23005,-8.78155 26.76475,27.1053 c 27.61909,27.97055 33.25145,36.33993 34.97036,51.96421 0.99941,9.08413 -0.82439,10.49132 -9.49214,7.3239 z m 201.24981,-6.69853 c 2.34866,-17.93985 12.54137,-31.68266 50.34,-67.87318 l 12.12711,-11.61116 -1.61358,10.45769 c -5.17014,33.50805 -22.24706,62.68841 -42.27889,72.24445 -5.5937,2.66843 -12.3002,4.86064 -14.90332,4.87157 -4.37345,0.0184 -4.65231,-0.59604 -3.67132,-8.08937 z M 156.22248,763.03563 c -22.87613,-7.27277 -28.80014,-10.28748 -50.70143,-25.80193 -12.126454,-8.59012 -21.776103,-15.81827 -21.4437,-16.06253 3.002567,-2.20632 74.6618,5.79529 80.93911,9.03782 1.7212,0.88908 8.94216,4.51731 16.04655,8.06271 7.1044,3.54538 16.40658,9.58539 20.67151,13.4222 l 7.75447,6.97606 -7.13286,3.05337 c -11.85428,5.07449 -32.45648,5.66056 -46.13365,1.3123 z m 394.75255,1.6393 c -4.76173,-0.95911 -9.9263,-2.82244 -11.4768,-4.14079 -3.65809,-3.1104 -0.18046,-7.23308 14.55327,-17.25255 16.30252,-11.08634 34.70917,-16.79166 61.61559,-19.09835 34.64178,-2.96986 44.05627,-3.3073 42.98743,-1.54082 -2.28152,3.77077 -43.20975,30.36908 -52.76258,34.28921 -22.2787,9.14233 -37.39139,11.27321 -54.91691,7.7433 z M 193.5076,737.74585 c -12.48042,-9.6484 -23.7012,-26.08315 -26.34825,-38.59144 -1.26539,-5.97949 -1.98223,-22.3157 -1.62978,-37.14206 l 0.62912,-26.46765 7.26219,14.25181 c 3.99418,7.8385 9.6033,17.75836 12.46465,22.04413 13.89823,20.8169 21.65255,49.02867 17.84253,64.91476 l -1.799,7.50096 -8.42146,-6.51051 z m 347.71641,-13.9257 c 1.05171,-21.95713 4.4343,-32.79356 14.9521,-47.90059 2.47081,-3.54889 8.41688,-13.97764 13.21352,-23.175 l 8.72115,-16.72247 1.3916,17.11537 c 1.67341,20.5817 -1.12448,46.98401 -6.13718,57.91331 -3.91522,8.53646 -20.78845,27.07915 -28.47758,31.29513 l -4.67376,2.56266 1.01015,-21.08841 z M 118.20367,698.72113 c -6.70156,-1.51858 -15.19091,-4.35376 -18.86523,-6.30042 C 87.347299,686.0678 66.90867,667.93562 57.928456,655.68372 53.09284,649.08641 46.451159,640.711 43.169145,637.0717 c -6.731209,-7.46403 -6.334426,-7.81133 4.211585,-3.68636 4.120811,1.61181 12.517866,3.94244 18.660111,5.17921 12.82918,2.58318 35.049889,12.9885 47.552649,22.26752 9.50161,7.0517 24.29412,23.97264 28.85274,33.00418 2.71128,5.37158 2.66458,5.8438 -0.58024,5.86934 -1.94076,0.0153 -5.3172,0.42128 -7.50317,0.9022 -2.18596,0.4809 -9.45758,-0.36809 -16.15915,-1.88666 z m 487.63244,1.55169 c -3.0057,-0.47604 -5.4649,-1.32861 -5.4649,-1.89468 0,-4.04519 12.15382,-20.71717 21.62277,-29.66104 13.07443,-12.34936 39.90003,-26.84113 55.97751,-30.2402 5.9576,-1.25954 14.75179,-3.6104 19.54264,-5.22409 10.32227,-3.47679 12.55385,-2.45742 5.29201,2.4174 -2.87157,1.92765 -8.29865,8.18512 -12.06021,13.9055 -11.62455,17.678 -17.97457,23.74031 -42.39142,40.47079 -9.20381,6.30645 -32.25772,11.85124 -42.5184,10.22632 z M 134.8364,673.22518 c -5.15292,-6.16762 -7.61763,-11.89717 -10.10313,-23.48599 -1.80815,-8.43051 -3.28754,-18.86605 -3.28754,-23.19009 0,-11.32183 7.25431,-45.79546 11.73798,-55.78075 3.7732,-8.40311 3.82746,-8.43579 4.00097,-2.41068 0.0968,3.35935 3.29048,18.93451 7.09716,34.61149 4.33615,17.85732 6.93084,33.49863 6.94689,41.87689 0.0254,13.23001 -4.38868,33.25193 -7.80801,35.41702 -0.97279,0.61598 -4.83572,-2.5511 -8.58432,-7.03789 z m 463.81475,2.43682 c -8.0487,-20.83519 -7.74186,-34.4563 1.63765,-72.69284 3.2962,-13.4374 6.00457,-26.89707 6.0186,-29.9104 0.0829,-17.80169 8.80263,2.30894 13.96817,32.21526 4.965,28.74535 -1.46965,62.23839 -13.74331,71.53516 l -5.7542,4.35859 -2.12691,-5.50577 z M 81.978312,618.13777 C 67.731905,612.95459 53.464301,601.47266 44.955778,588.34367 41.117941,582.42173 32.647672,566.55154 26.132955,553.0766 l -11.844937,-24.49994 9.362714,5.51512 c 5.149498,3.03334 14.58948,9.23551 20.977765,13.7826 6.388268,4.54712 14.751309,10.21786 18.584502,12.60173 14.388209,8.94799 30.711039,35.03578 33.632344,53.75262 1.47546,9.45323 0.834714,9.6217 -14.867031,3.90904 z m 564.099458,1.05349 c 0,-1.7158 2.80778,-10.57898 6.2395,-19.69597 7.02345,-18.65902 16.3182,-30.41371 33.27231,-42.07826 15.50126,-10.66496 40.7825,-26.71085 42.0964,-26.71838 2.09727,-0.012 -23.94602,51.85062 -30.83933,61.41349 -8.06647,11.19039 -21.40197,21.08302 -35.57494,26.39044 -12.34481,4.62282 -15.19394,4.75198 -15.19394,0.68868 z M 95.80435,592.84978 c -5.348049,-14.6444 -5.413429,-33.1634 -0.178432,-50.52798 4.257319,-14.12151 29.772352,-56.50336 29.677002,-49.29509 -0.31342,23.6973 -4.28445,71.21554 -6.57063,78.62621 -3.90094,12.64481 -9.90974,24.40726 -14.76753,28.90812 -3.93004,3.64126 -4.05908,3.51936 -8.16041,-7.71126 z m 543.78303,7.57442 c -4.79884,-5.45933 -12.5935,-22.79859 -15.17776,-33.76305 -2.03081,-8.61634 -6.58801,-74.76393 -5.25126,-76.22177 1.48691,-1.62161 25.44585,39.00577 29.14318,49.41833 6.12164,17.23991 6.06244,41.18214 -0.13462,54.45857 -2.48274,5.31899 -4.72412,9.67088 -4.98086,9.67088 -0.25674,0 -1.87614,-1.60333 -3.59868,-3.56296 z M 59.452888,527.42458 C 41.281644,515.16446 31.02183,494.44716 25.175507,458.20955 c -1.644166,-10.19117 -3.63028,-20.26921 -4.413597,-22.39567 -1.092682,-2.96642 0.244731,-2.4447 5.746177,2.24161 3.943678,3.35935 9.356077,7.65829 12.027525,9.55321 8.363611,5.93247 29.678654,38.43615 33.574511,51.19832 4.403465,14.42516 4.957394,35.9571 0.925018,35.9571 -1.48721,0 -7.59924,-3.30278 -13.582253,-7.33954 z m 609.151652,-7.81427 c 1.47207,-17.84152 6.06154,-31.25967 15.4067,-45.04449 6.99009,-10.31086 36.95159,-41.60026 39.83481,-41.60026 0.89269,0 0.74112,2.37655 -0.3368,5.28122 -1.07795,2.9047 -3.21588,13.21179 -4.75097,22.90469 -5.39696,34.07692 -16.76271,55.93174 -34.83499,66.98287 -16.09461,9.84178 -16.80162,9.44839 -15.31875,-8.52403 z M 80.658679,509.62113 c -0.902628,-7.4015 -0.295382,-15.06665 1.895131,-23.92268 5.48902,-22.19131 11.578668,-32.28548 30.91543,-51.24521 9.852,-9.65988 17.91271,-17.09616 17.91271,-16.52502 0,0.57115 -1.42993,5.79152 -3.17766,11.60082 -9.67396,32.156 -15.72228,49.78864 -19.29442,56.24908 -5.48765,9.92481 -23.678767,34.73422 -25.468336,34.73422 -0.800062,0 -2.052349,-4.90105 -2.782855,-10.89121 z m 571.855511,1.05385 c -16.1191,-19.58503 -24.79232,-39.50672 -39.15041,-89.92525 l -1.44949,-5.08993 4.93223,5.08993 c 2.71274,2.79947 11.65897,11.79213 19.88049,19.98369 12.73653,12.69014 15.74372,17.05802 20.32482,29.52159 5.71667,15.55308 8.42045,38.01473 5.51262,45.79621 -1.69871,4.54583 -2.0299,4.36864 -10.05026,-5.37624 z M 66.6203,443.36745 C 50.759,433.45816 44.424794,411.50355 46.921305,375.0902 c 0.85016,-12.40001 1.567792,-25.45047 1.594757,-29.00098 0.04763,-6.27579 0.237721,-6.13413 6.829503,5.08992 3.729274,6.34998 8.018694,12.95081 9.532065,14.66855 4.086938,4.63885 11.932691,23.86774 14.796684,36.26474 2.517159,10.89579 1.894701,22.34072 -2.026486,37.26001 -2.369631,9.01593 -2.762822,9.15835 -11.027528,3.99501 z m 600.90477,-0.73103 c -1.61292,-2.90949 -2.54476,-12.38094 -2.55397,-25.95862 -0.0136,-20.02827 0.39127,-22.21307 6.414,-34.61153 3.53572,-7.27858 10.33494,-19.40781 15.10938,-26.95381 l 8.68085,-13.72003 1.7038,19.82795 c 2.99573,34.86199 0.85514,54.29213 -7.74686,70.31881 -3.52679,6.57086 -13.91415,15.67816 -17.8818,15.67816 -0.65227,0 -2.3287,-2.06142 -3.7254,-4.58093 z M 85.675376,429.79518 c 0,-17.21414 9.870708,-36.08332 26.917614,-51.45651 7.17725,-6.47261 42.01916,-26.81196 45.92963,-26.81196 0.58641,0 -1.75365,3.4357 -5.20019,7.6349 -3.44656,4.19918 -11.64218,15.88056 -18.21247,25.95861 -13.15971,20.18538 -26.1546,34.88211 -38.862798,43.95234 -10.122237,7.22454 -10.571786,7.25526 -10.571786,0.72262 z m 563.347744,-0.15145 c -11.78074,-7.97607 -28.58284,-25.1865 -32.86894,-33.66767 -5.86018,-11.59598 -15.89247,-26.44045 -23.12013,-34.21012 -3.61546,-3.88661 -6.57356,-7.84053 -6.57356,-8.78653 0,-0.946 9.0017,3.1029 20.00375,8.99756 15.68313,8.40264 22.75137,13.70157 32.72491,24.53331 12.67876,13.76972 15.52058,19.77181 19.82615,41.87434 1.56072,8.01199 0.22959,8.17973 -9.99218,1.25911 z M 88.28758,361.31658 C 75.419021,338.97116 75.917003,324.44887 91.130851,278.40272 l 5.661391,-17.13478 6.718008,20.87942 c 5.29348,16.45201 6.71307,24.18674 6.69465,36.4765 -0.0256,17.1136 -5.40191,34.93689 -13.418722,44.48552 l -4.428488,5.27469 -4.07011,-7.06749 z m 560.42575,4.16197 c -1.19037,-1.51472 -4.72953,-7.79303 -7.86485,-13.95184 -5.30138,-10.41377 -5.69162,-12.76602 -5.57323,-33.59354 0.11362,-19.98757 0.78812,-24.14701 6.27286,-38.68344 3.71256,-9.83945 6.60422,-15.07872 7.30408,-13.23382 8.70626,22.95119 17.02053,53.91436 17.06395,63.54773 0.0388,8.60269 -6.44555,27.79681 -11.58904,34.30445 -2.82356,3.57246 -3.84227,3.86471 -5.61377,1.61046 z M 108.68505,353.05368 c 6.84402,-22.11216 35.12512,-43.24462 68.73805,-51.36303 19.75732,-4.77191 21.14892,-4.03219 9.41194,5.00306 -5.78874,4.45623 -13.70329,11.14886 -17.58791,14.87256 -16.6368,15.94756 -49.10076,35.99742 -58.36833,36.04845 -2.84301,0.0157 -3.30986,-0.95492 -2.19375,-4.56104 z m 518.70797,3.11774 c -7.07345,-1.85388 -27.98123,-14.69291 -38.94529,-23.91539 -6.01141,-5.05656 -17.36316,-14.44555 -25.22611,-20.86442 -7.86297,-6.4189 -13.9921,-11.98239 -13.62027,-12.36337 1.87543,-1.92141 26.9348,4.66291 41.46706,10.8954 18.63453,7.99185 33.91328,21.06527 40.81352,34.9225 6.30375,12.65935 5.76709,14.01334 -4.48891,11.32528 z M 125.80865,289.93858 c -3.00684,-14.19636 -1.2423,-31.27731 4.4371,-42.95159 2.8075,-5.77097 10.84433,-17.62277 17.85963,-26.33736 l 12.75509,-15.84474 1.38902,13.28858 c 3.04669,29.1471 -3.92867,53.38514 -20.09002,69.80914 -5.78487,5.87887 -11.41797,10.68883 -12.51802,10.68883 -1.10004,0 -2.82482,-3.8938 -3.8328,-8.65286 z m 478.02073,-0.32829 c -5.57522,-5.26805 -11.68167,-13.82747 -14.87263,-20.847 -4.84401,-10.65603 -5.48808,-14.69447 -6.12043,-38.37688 l -0.70672,-26.46763 7.63037,8.9765 c 22.11901,26.02118 28.13394,37.252 29.78642,55.61596 1.09963,12.22003 -1.78282,30.10552 -4.84428,30.0585 -0.77759,-0.0119 -5.67032,-4.04369 -10.87273,-8.95945 z M 155.51546,282.166 c 16.97903,-16.45941 33.98028,-22.28255 64.8934,-22.22683 21.85027,0.0394 25.72728,2.15671 12.92883,7.06067 -5.25191,2.01239 -16.70303,7.28519 -25.44689,11.71739 -17.41996,8.83002 -35.90544,13.67626 -52.37534,13.73097 l -10.64328,0.0353 10.64328,-10.31754 z m 410.079,7.424 c -6.55793,-1.37205 -20.41892,-6.64759 -30.80226,-11.72347 -10.38335,-5.07587 -22.22325,-10.45755 -26.31089,-11.95929 -10.70702,-3.93359 -5.69002,-5.93123 14.98874,-5.96807 31.77,-0.0566 51.91336,7.34192 68.8452,25.28642 l 6.84836,7.25795 -10.82284,-0.19946 c -5.95257,-0.1097 -16.18842,-1.32204 -22.74631,-2.69408 z M 210.3529,247.77487 c -4.11077,-0.81673 -8.03879,-2.06353 -8.72896,-2.77061 -2.25388,-2.30912 3.21067,-6.95534 13.78159,-11.71781 15.87128,-7.15042 40.56713,-6.70222 63.52917,1.15299 9.56361,3.27166 17.38838,6.67573 17.38838,7.56463 0,0.88888 -3.35347,1.62376 -7.45214,1.63307 -4.0987,0.009 -17.28904,1.36569 -29.31185,3.01419 -23.32925,3.19882 -37.17051,3.51484 -49.20619,1.12354 z m 281.71358,-0.0414 c -6.55791,-0.91369 -19.34469,-2.35152 -28.41505,-3.19521 -9.07038,-0.8437 -15.77731,-2.24996 -14.90433,-3.12505 3.35614,-3.36411 32.09078,-11.9 44.41376,-13.19349 14.91619,-1.56568 34.52683,2.65999 43.8252,9.44336 6.6239,4.83229 7.17641,6.99792 2.27743,8.92666 -5.68105,2.23661 -34.36402,2.93169 -47.19701,1.14373 z m -309.88479,-7.38156 c -4.35086,-17.76033 8.67872,-39.78557 33.84347,-57.20902 6.45595,-4.4699 13.65614,-9.16316 16.00041,-10.42943 l 4.26237,-2.30232 -3.54371,14.11456 c -4.98641,19.86075 -10.58838,30.67121 -22.10561,42.65845 -8.15411,8.48687 -22.37084,18.47208 -26.30012,18.47208 -0.47157,0 -1.44211,-2.38697 -2.15681,-5.30432 z m 368.30539,1.24283 c -9.33927,-5.05016 -27.28291,-25.23294 -31.88469,-35.86347 -3.80166,-8.78225 -10.43254,-33.26478 -9.30657,-34.36185 0.36071,-0.35141 7.13943,3.66167 15.06382,8.91801 16.03293,10.63481 33.31226,30.01623 36.49109,40.9303 2.41793,8.30164 1.66968,22.847 -1.21801,23.67681 -1.09298,0.31409 -5.20852,-1.17082 -9.14564,-3.2998 z M 245.72983,204.42778 c 4.14469,-19.71804 14.40296,-27.82977 45.62515,-36.07802 7.65088,-2.02122 15.56603,-4.36953 17.58922,-5.21845 6.97732,-2.92771 -2.07116,10.83412 -17.55159,26.69415 -14.87105,15.23571 -26.51557,21.21922 -41.2947,21.21922 -5.4577,0 -5.68619,-0.34606 -4.36808,-6.6169 z m 231.56764,3.26406 c -4.84398,-1.73713 -12.3429,-6.04528 -16.66425,-9.57367 -7.37075,-6.01821 -29.69686,-34.04753 -28.27779,-35.50141 0.35701,-0.36574 4.99543,0.71431 10.30764,2.40009 5.31219,1.68579 15.34552,4.71505 22.29627,6.7317 19.35397,5.61528 34.06249,20.79715 34.06249,35.1588 0,3.33037 -1.25967,4.11838 -6.45855,4.04014 -3.5522,-0.0535 -10.42179,-1.51849 -15.26581,-3.25565 z"
           id="path17799"
           inkscape:connector-curvature="0" />
      </g>
    </g>
  </g>
</svg>
